<?xml version="1.0" encoding="utf-8"?>
<!-- Generator: Adobe Illustrator 22.0.0, SVG Export Plug-In . SVG Version: 6.00 Build 0)  -->
<svg version="1.1" id="Calque_1" xmlns="http://www.w3.org/2000/svg" xmlns:xlink="http://www.w3.org/1999/xlink" x="0px" y="0px"
	 viewBox="0 0 500 321.4" enable-background="new 0 0 500 321.4" xml:space="preserve">
<line fill="none" stroke="#CC9933" stroke-width="5" stroke-miterlimit="10" x1="470" y1="79.4" x2="252.8" y2="4.6"/>
<line fill="none" stroke="#CC9933" stroke-width="5" stroke-miterlimit="10" x1="36.5" y1="76.9" x2="252.8" y2="4.6"/>
<path fill="#FFCC33" d="M486.5,321.4H13.5c-7.5,0-13.5-6.1-13.5-13.5V84.9c0-7.5,6.1-13.5,13.5-13.5h472.9c7.5,0,13.5,6.1,13.5,13.5
	v222.9C500,315.3,493.9,321.4,486.5,321.4z"/>
<rect x="36.5" y="104.7" fill="#FF4242" width="432.5" height="191.5"/>
<circle fill="#999999" cx="252.8" cy="11.5" r="8.5"/>
<g>
	<path fill="#FFFFFF" d="M58.8,161.3c-0.7,1.5-1.8,6.2-3.2,14.1c-1.4,8-2.1,14.6-2.1,20c2.6-0.5,5.4-0.9,8.2-1.2l12.1-1.6
		c1.9-0.3,4.6-1,8.1-2c3.5-1,5.9-1.6,7.1-1.6c4.5,0,6.8,2.1,6.8,6.2c0,0.8-0.6,1.9-1.9,3.1c-1.3,1.3-3,2.1-5.1,2.7
		c-2.1,0.5-7.3,1.3-15.4,2.3c-10,1.3-15.9,2.3-17.8,2.9c-1.9,0.7-3,1.3-3.3,2c-0.3,0.7-0.7,3.8-1.1,9.4c-0.4,5.6-0.6,10.1-0.6,13.6
		l0.2,8c0,4.4-1.4,6.6-4.3,6.6c-1.8,0-3.4-0.8-4.9-2.3c-1.5-1.5-2.2-3.5-2.2-6.1c0-10,2.2-31.1,6.6-63.3c1-7.5,1.6-11.5,1.6-12.1
		c0-0.8-0.2-2.1-0.7-3.8c-0.6-2.1-0.9-3.6-0.9-4.4c0-1.2,0.6-2.4,1.7-3.8c1.2-1.4,2.2-2,3.3-2l7.6,1c2.3,0,6.7-0.4,13.1-1.3
		c10.8-1.5,18.2-2.2,22.3-2.2c3.5,0,6.1,0.6,7.6,1.8c1.5,1.2,2.3,2.4,2.3,3.6c0,2.1-0.6,3.9-1.9,5.3c-1.2,1.5-2.6,2.2-4,2.2
		c-0.7,0-1.4-0.1-2.1-0.3c-4.2-0.8-7.4-1.2-9.6-1.2c-4.1,0-9.4,0.4-16,1.3C63.7,159.3,59.9,160.2,58.8,161.3z"/>
	<path fill="#FFFFFF" d="M156.2,218.2c0,4.4-3.5,9.7-10.4,15.9c-6.9,6.2-14.1,9.3-21.4,9.3c-6.2,0-10.9-2-14.3-6.1
		c-3.4-4.1-5-9.8-5-17.1c0-12.3,3.7-24.1,11.1-35.2c7.4-11.1,15.5-16.7,24.3-16.7c2.9,0,5.2,1.1,7.1,3.2c1.8,2.1,2.7,4.7,2.7,7.6
		c0,6.6-2.9,13-8.7,19.1c-5.8,6.1-13.5,12.1-23.3,17.9c-2,1.2-3,2.7-3,4.5c0,3.6,0.9,6.5,2.8,8.6c1.8,2.2,4.6,3.2,8.2,3.2
		c8.3,0,16.7-5.1,25.3-15.4c1.3-1.4,2.2-2.1,2.9-2.1C155.6,214.9,156.2,216,156.2,218.2z M116.2,208.1
		c16.3-10.9,24.4-19.6,24.4-26.2c0-2.6-1-3.9-3.1-3.9c-3.5,0-7.5,2.9-11.9,8.7S118,199.7,116.2,208.1z"/>
	<path fill="#FFFFFF" d="M179.8,214.5c0.4-0.8,0.8-1.9,1.4-3.2c2.6-6.7,5-12,7.2-15.8c2.2-3.8,4.6-7.5,7.2-11c2.6-3.5,5-6.1,7.2-8
		c2.2-1.8,4.1-3.1,5.9-3.8c1.8-0.7,3.5-1.1,5.1-1.1c3.3,0,6.1,1.1,8.2,3.4c2.1,2.3,3.2,4.9,3.2,7.9c0,1.3-0.4,2.5-1.1,3.6
		c-0.7,1.1-1.9,1.6-3.4,1.6c-1.6,0-3.1-0.8-4.4-2.4c-1.4-1.6-2.8-2.4-4.3-2.4c-4,0-9.5,5.4-16.6,16.3c-7.1,10.9-11.4,22.8-12.9,35.9
		c-0.4,3.4-1.1,5.6-2.2,6.7c-1.1,1.1-2.6,1.6-4.5,1.6c-1.9,0-3.2-1.6-4.1-4.7c-0.8-3.1-1.3-8.5-1.3-15.9c0-2,0.1-6.5,0.3-13.4
		c0.2-8.2,0.7-14.7,1.4-19.7c0.1-0.8,0.3-2.7,0.6-5.8c0.3-3.3,0.6-5.6,1-6.9s1.2-2.5,2.5-3.6c1.2-1.1,2.6-1.7,4.1-1.7
		c1.4,0,2.5,0.5,3.2,1.5c0.7,1,1.1,2.1,1.1,3.3c0,1.7-0.4,4.1-1.2,7.1c-0.9,3.4-1.4,5.8-1.6,7.1c-0.1,1.5-0.3,3-0.6,4.6
		c-0.4,1.9-0.8,6.7-1.2,14.6l-0.1,2.4V214.5z"/>
	<path fill="#FFFFFF" d="M272.9,189c-3.6,0.1-11.2,12-22.9,35.7c-4,8-6.3,12.3-6.9,13s-1.9,1.3-3.6,1.9s-3.2,0.8-4.3,0.8
		c-2.6,0-3.9-5.6-3.9-16.9c0-6.3,1.2-17.8,3.6-34.4c1-6.7,1.5-11.5,1.5-14.4c0-2.8,1.1-4.3,3.4-4.3c4.3,0,6.4,3.5,6.4,10.4
		c0,3.2-0.7,9.6-2.1,19c-1.7,10.8-2.5,17.3-2.5,19.7c2.4-2.6,5.9-8.3,10.5-17c6.5-12,11.3-19.6,14.4-22.8s6.3-4.8,9.6-4.8
		c2.5,0,4.5,1.9,6,5.6c1.5,3.8,2.4,12.7,2.7,26.9c0.1,3.5,0.4,6.2,0.9,7.9c0.5,1.7,0.9,2.6,1.1,2.6c1.8,0,5.7-6.9,11.7-20.7
		c3.2-7.3,6.4-12.8,9.4-16.6c3.1-3.8,6.4-5.7,10.2-5.7c3.1,0,5.4,1.8,6.8,5.4c1.4,3.6,2.4,8.9,3.1,16c0.6,7.2,1.5,13.7,2.7,19.7
		c1.2,6,3.4,9.8,6.6,11.5c2.2,1.2,3.3,2.5,3.3,4.1c0,1.5-0.9,3.1-2.8,4.7c-1.8,1.6-3.5,2.4-5.1,2.4c-3.1,0-5.8-2.1-8.2-6.3
		c-2.4-4.2-4.2-13.4-5.5-27.4c-0.5-5.7-1.1-9.7-1.6-12c-0.5-2.4-1.3-3.6-2.4-3.6c-1.6,0-3.5,1.7-5.7,5.2c-2.2,3.5-5.8,10.5-10.7,21
		c-3.8,8.2-6.7,13.7-8.7,16.5c-2,2.7-3.9,4.1-5.7,4.1c-1.7,0-3.1-0.7-4.4-2.2c-1.3-1.5-2.1-3.3-2.5-5.4c-0.3-2.1-0.7-7.2-1.1-15.4
		C275.5,199.2,274.4,191.2,272.9,189z"/>
	<path fill="#FFFFFF" d="M399.9,218.2c0,4.4-3.5,9.7-10.4,15.9c-6.9,6.2-14.1,9.3-21.4,9.3c-6.2,0-10.9-2-14.3-6.1
		c-3.4-4.1-5-9.8-5-17.1c0-12.3,3.7-24.1,11.1-35.2c7.4-11.1,15.5-16.7,24.3-16.7c2.9,0,5.2,1.1,7.1,3.2c1.8,2.1,2.7,4.7,2.7,7.6
		c0,6.6-2.9,13-8.7,19.1s-13.5,12.1-23.3,17.9c-2,1.2-3,2.7-3,4.5c0,3.6,0.9,6.5,2.8,8.6c1.8,2.2,4.6,3.2,8.2,3.2
		c8.3,0,16.7-5.1,25.3-15.4c1.3-1.4,2.2-2.1,2.9-2.1C399.2,214.9,399.9,216,399.9,218.2z M359.9,208.1
		c16.3-10.9,24.4-19.6,24.4-26.2c0-2.6-1-3.9-3.1-3.9c-3.5,0-7.5,2.9-11.9,8.7S361.7,199.7,359.9,208.1z"/>
	<path fill="#FFFFFF" d="M423.5,214.5c0.4-0.8,0.8-1.9,1.4-3.2c2.6-6.7,5-12,7.2-15.8c2.2-3.8,4.6-7.5,7.2-11c2.6-3.5,5-6.1,7.2-8
		c2.2-1.8,4.1-3.1,5.9-3.8c1.8-0.7,3.5-1.1,5.1-1.1c3.3,0,6.1,1.1,8.2,3.4s3.2,4.9,3.2,7.9c0,1.3-0.4,2.5-1.1,3.6
		c-0.7,1.1-1.9,1.6-3.4,1.6c-1.6,0-3.1-0.8-4.4-2.4c-1.4-1.6-2.8-2.4-4.3-2.4c-4,0-9.5,5.4-16.6,16.3c-7.1,10.9-11.4,22.8-12.9,35.9
		c-0.4,3.4-1.1,5.6-2.2,6.7c-1.1,1.1-2.6,1.6-4.5,1.6c-1.9,0-3.2-1.6-4.1-4.7c-0.8-3.1-1.3-8.5-1.3-15.9c0-2,0.1-6.5,0.3-13.4
		c0.2-8.2,0.7-14.7,1.4-19.7c0.1-0.8,0.3-2.7,0.6-5.8c0.3-3.3,0.6-5.6,1-6.9s1.2-2.5,2.5-3.6c1.2-1.1,2.6-1.7,4.1-1.7
		c1.4,0,2.5,0.5,3.2,1.5s1.1,2.1,1.1,3.3c0,1.7-0.4,4.1-1.2,7.1c-0.9,3.4-1.4,5.8-1.6,7.1c-0.1,1.5-0.3,3-0.6,4.6
		c-0.4,1.9-0.8,6.7-1.2,14.6l-0.1,2.4V214.5z"/>
</g>
<g>
</g>
<g>
</g>
<g>
</g>
<g>
</g>
<g>
</g>
</svg>
