<svg id="Calque_1" data-name="Calque 1" xmlns="http://www.w3.org/2000/svg" viewBox="0 0 404.68 317.82"><defs><style>.cls-1{fill:#6f91cb;}.cls-2{fill:#676766;}</style></defs><title>wifi</title><path class="cls-1" d="M5.36,90.1c118.66-128.67,308-90.67,390,0,8,29.33-20,43.13-34.67,30.66C260.69,19.43,108,48.07,42,118.76,21.36,136.1-5.09,111.43,5.36,90.1Z" transform="translate(-1.12 -0.76)"/><path class="cls-2" d="M112.11,14.48l2.42-.32C114.43,14,113.8,14,112.11,14.48Z" transform="translate(-1.12 -0.76)"/><path class="cls-2" d="M152.14,66.3l-.51.21C152,66.4,152.12,66.34,152.14,66.3Z" transform="translate(-1.12 -0.76)"/><path class="cls-2" d="M203.73,17.28h-.12c-.19,0-.42.06-.59.1Z" transform="translate(-1.12 -0.76)"/><path class="cls-2" d="M90.87,38.18c1.74-.75,3.37-1.56,5-2.15l4.7-1.71c3-1.06,5.74-2.11,8.39-2.9l7.57-2.1c2.41-.65,4.73-1.35,7.12-1.82s4.76-1.05,7.22-1.63l3.77-.89,4-.78c2.76-.55,5.69-1.17,8.89-1.89,3.23-.54,6.72-1.17,10.58-1.9a329.23,329.23,0,0,1,45.48-3.14c7.06-1.51,19.28,1,27.63.77l3.06,1.39a39,39,0,0,1,4.56.09,17.75,17.75,0,0,1,4.44,1l-.23.24a41.8,41.8,0,0,1,6.38.7l2.72.46a19.5,19.5,0,0,0,2,.3l-.23.23L259,23.52l-1,.19c1.85.23,3.71.51,5.56.83l1.39.24,1.36.32,2.7.68c1.79.47,3.55,1,5.26,1.47s3.39,1,5,1.67l-.19-1.28c3.35,1.44,6.21,2.48,8.82,3.32l1.91.59,1.8.62,3.47,1.13c2.28.74,4.52,1.45,6.91,2.38a78,78,0,0,1,7.7,3.91l-.28.19a45.6,45.6,0,0,1,10.68,3.88c1.57.77,3.06,1.57,4.52,2.4s2.79,1.79,4.17,2.7c5.58,3.57,10.93,7.43,18.86,10.81-1.95-.89.42,1,.12,1.15l5,3.05,2.36,1.38c.75.46,1.44.91,2.12,1.29,2.67,1.55,4.74,2.34,5.48,1.47,4.59,3.47,3.27,3.41,3.3,4.55.6-.8,4.67,2.07,8.15,4.9l-1.83-1,2.51,2,2.39,2.12,4.8,4.24-.55-3.08c4.61,5.08-.25,2.75,4.59,7.1l1.06-1.15A29.51,29.51,0,0,1,390.66,92c.39.43.19,1.12.18,1.64,0,.29-.06.51-.1.84s-.06.81-.09,1.2a30.75,30.75,0,0,1-2.46,9.38,17.47,17.47,0,0,1-5,8.33,15.77,15.77,0,0,1-8.65,4.07,12.32,12.32,0,0,1-8.74-2.1c-.13-.1-.29-.18-.34-.24s-.11-.09,0,0l0,0,0,0,0,0-.09-.08-.36-.32-1.42-1.29-2.86-2.58c-1.92-1.69-3.76-3.46-5.73-5.09-15.62-13.18-32.39-24.09-48.41-33.76l-.94-1.81c0-.47-.6-.86-1.57-1.21a27.46,27.46,0,0,0-3.68-.84c-2.72-.51-5.48-1-5.82-2-1.43-.34-2.83-.74-4.29-1-1-.72-3.3-2-1.14-1.54a23.71,23.71,0,0,0-6.8-1.84l-1.83-1.28-1.88-1.17c-1.86-.71-3.7-1.38-5.52-2s-3.62-1.25-5.46-1.67c-3.67-.89-7.27-1.75-10.93-2.45l-11.18-1.86c-3.83-.48-7.74-1.1-11.85-1.81C224,47.19,209.41,46,194.78,46.88l-5.49.34c-1.82.1-3.63.38-5.43.57-3.59.43-7.14.79-10.53,1.44l-5,.87-2.41.43c-.79.15-1.56.34-2.33.51L155,53c-14.61,4.1-30.54,7.59-46.3,12.91l-5.89,2c-1.94.74-3.87,1.53-5.79,2.31L94.16,71.4,92.72,72l-1.4.67Q88.5,74,85.73,75.36c-.92.46-1.85.91-2.75,1.4l-2.67,1.53q-2.66,1.54-5.24,3.14c-1.71,1.08-3.33,2.3-4.95,3.47s-3.22,2.35-4.71,3.65a7.75,7.75,0,0,0-2.67,2.55l-2.92,2.09-1.46,1-1.42,1.12L51.3,99.83c-1.86,1.52-3.62,3.17-5.43,4.75L43.17,107l-2.57,2.55L37,113.16l-.65.5c-.28.2-.56.47-.87.65l-1,.62c-.33.23-.69.37-1,.58a15.5,15.5,0,0,1-4.84,1.6,14.81,14.81,0,0,1-5.66-.29,17,17,0,0,1-5.78-2.66,20.55,20.55,0,0,1-7.67-10A23.84,23.84,0,0,1,8.38,94.6a12.55,12.55,0,0,0-.07-2.8c-.16-.65-.46-1-1.1-.8a3.15,3.15,0,0,0-1.09.61,7.23,7.23,0,0,0-1.47,1.5,16.29,16.29,0,0,0-3,6.69,26.25,26.25,0,0,0-.41,2.62,22.68,22.68,0,0,0-.06,3,24.23,24.23,0,0,0,1.31,7,28.7,28.7,0,0,0,4.08,7.82,29.61,29.61,0,0,0,7.87,7.4c-.32,0-.63,0-.94-.07a28.09,28.09,0,0,0,12.81,3.94,26.45,26.45,0,0,0,11.54-2l1.25-.53,1.17-.63A18,18,0,0,0,42.45,127a21.55,21.55,0,0,0,2-1.48l2-1.7c.19-.18.36-.39.53-.58l.36-.4.17-.21.58-.73,1.14-1.48c.75-1,1.48-2,2.2-3.09,1.32.21,3.59-1.71,5.89-4s4.78-4.67,6.33-5.47l-.13.35c2.83-3.57,6.9-5.89,10.78-8.26,2-1.1,4-2.16,5.92-3.33.95-.58,1.86-1.23,2.77-1.84a28.11,28.11,0,0,0,2.62-2c-.2.33,0,1-1.72,2L88,92.13c1.43-.9,2.83-1.83,4.17-2.49,2.65-1.39,4.75-2.25,5.26-1.76L100,86.5l2.69-1.29,5.6-2.66c1.92-.87,3.9-1.65,5.86-2.49s3.88-1.7,5.84-2.4c3.88-1.46,7.55-3,10.9-4.25s6.17-2.63,8.39-3.71l-.54.53a21,21,0,0,1,6-2.35,67.27,67.27,0,0,0,6.68-1.77c.37.11.82.1.76.19a29.5,29.5,0,0,1,5.12-1.77c2-.43,4.09-.8,6.19-1.13,4.2-.76,8.31-1,10.69-1.64l.42.85c3.94-.65,7.93-.9,11.9-1.32l-4.48.16c.67-1.28,3-1.08,6.16-.84s7.24.83,11.57-.12a24.91,24.91,0,0,0,6.16-.57c1-.2,2.08-.45,3.13-.72s2.11-.55,3.17-.76a56.19,56.19,0,0,1,6.42-1.07,26.91,26.91,0,0,1,3.23-.12,18.18,18.18,0,0,1,3.18.52c4.19-.7-3.76,1.46,2.4,1.25,0,1.29-2.91.48-1.46,1.67a30.12,30.12,0,0,1,7.91,1.25,36.67,36.67,0,0,0,8.9,1.55l.11,1a32.4,32.4,0,0,1,6.88.83c1.09.24,2.15.51,3.18.8l1.53.43,1.46.53c1.93.69,3.76,1.36,5.52,1.85a23.76,23.76,0,0,0,2.58.59c.43.07.85.12,1.26.16s.82.1,1.23.12c4.78,1.12,6.12,2.34,7.53,3.42s2.85,2.13,7.93,3L285.13,79c3.88,1.89,3.48-.26,7.61,2.29-.62.66,5.23,3.1,2.33,2.68,1.18.67,2.31,1.44,3.51,2.09s2.41,1.29,3.66,1.9,2.54,1.19,3.85,1.78,2.56,1.3,3.88,2,2.66,1.38,4,2.12a36.17,36.17,0,0,1,4,2.43,71.56,71.56,0,0,1,8,6.33c3.44.52,8.58,5.67,11.19,6.11-.15.81,10.92,9.47,3.75,5.41-.61-.36-1.52-1.17-1.27-1.33l-1.36.13a25.65,25.65,0,0,0,4,4.26c.72.6,1.45,1.17,2.21,1.72s1.44,1.14,2.18,1.69c1.48,1.1,3,2.18,4.49,3.33.74.58,1.49,1.18,2.22,1.82l.55.48.27.25.64.6c.35.33.66.54,1,.81l.89.7-1.05-.94-.59-.52-.29-.31-.14-.15-.3-.3c-.4-.45-.77-.86-1-1.18-.52-.65-.61-.94.4-.44l1.62,1.6c.83.76,1.52,1.25,2.23,1.82s1.51,1,2.29,1.49,1.6.89,2.44,1.24a22.75,22.75,0,0,1-2.44-.27,29,29,0,0,0,16,3.77c-.78-.29-1.54-.61-2.27-.92A39.57,39.57,0,0,0,383,133c.68-.15,1.37-.34,2.08-.56a16.81,16.81,0,0,0,4.41-2.28,20.61,20.61,0,0,0,2.34-2c1.33-1.54-.31-.63-1.54-.19-.61.23-1.1.39-1,.22s.2-.26.56-.55.92-.7,1.66-1.34a29.8,29.8,0,0,0,6.25-5.43,32,32,0,0,0,5.12-8.07,35.48,35.48,0,0,0,2.65-9.61,41.08,41.08,0,0,0,0-9.47c-.48.63-.84.15-1.18-.86-.08-.28-.16-.49-.25-.9s-.2-.85-.36-1.37c-.28-1-.6-2.1-.91-3.21l.79-1-.13-.4c-.06-.13-.05-.28-.18-.36l-.6-.56-1.08-1c-.66-.62-1.23-1.17-1.73-1.67l-.57-.57-.37-.39c-.23-.25-.41-.47-.57-.68a4.42,4.42,0,0,1-.89-1.93,4.66,4.66,0,0,0-.84-2,16.54,16.54,0,0,0-3.8-3.65l1.17.14-3.5-.41c-4.16-2.54-4.74-3.78-5.5-5.07s-1.77-2.51-6.67-4.88c3.31,2.54.08,2.93-3.54-.67l1.6.09c-1.16-.83-2-1.32-2.67-1.77a10,10,0,0,1-2-1.44c1.67.6,1.58-.57-1.86-2.95l3,.73-7.37-3.33a24.84,24.84,0,0,0-3.9-3.24c-1.46-1-3-2.06-4.46-3s-2.77-1.91-3.89-2.66A8.37,8.37,0,0,1,351,42.66s-2.71-1.85-5.84-3.73a38.31,38.31,0,0,0-4.78-2.48,12.1,12.1,0,0,0-3.68-1.14c2.75.45-3.41-3.32-1.1-3.29a26.6,26.6,0,0,1-3.5-1.08c-1.43-.46-3-1.05-4.61-1.71A35.11,35.11,0,0,1,319.56,25l.75.19a102.75,102.75,0,0,0-9.47-4.38c-1.52-.63-3-1.2-4.53-1.66l-4.45-1.41-4.37-1.4-2.18-.72-2.2-.67a79.66,79.66,0,0,1-8.95-3.36c.11.67-1.43.23-2.9,0s-2.78-.38-2.15.57a64.55,64.55,0,0,1-9.43-2.41l-8.09-2.53a31.35,31.35,0,0,0-6.66-1.52,8.33,8.33,0,0,0-5.11,1c-6.13-.85-7-2.45-10.18-3.08l1.51,0c-5.8-.6-9.53-1-12.88-1.41s-6.36-.54-10.66-1a17,17,0,0,0-5.15,1,19.67,19.67,0,0,1-7.63.35c2.52-.74-.63-.72-3.51-.83,1.84-.05,2.43-.38-1.35-1a8.84,8.84,0,0,1-2.14.57c0-.07-.18-.12-.1-.21-4.82.33-4,.59-1.75.69-.11.13.08.29.77.52a48.82,48.82,0,0,0-8.9-.48c-2.93,0-5.31.16-5.65-.57-3.61.3-7,.61-10.13,1s-6.15,1.1-9,1.66l-4.3.83-4.22,1c-2.81.68-5.63,1.34-8.55,2-1.47-.52,1.18-1.61,4.58-2.45l-4.19.81c-.7.14-1.4.26-2.09.42l-2.08.52c-.07-.52,1.1-1,2.62-1.3s3.38-.53,4.66-.85c-5.21-.16-10.27,1.53-15.52,3.1-1.31.42-2.65.78-4,1.22s-2.66.91-4,1.32a54.79,54.79,0,0,1-8.56,1.93c-.72.47-1.41,1-2.11,1.55l-.72.1c.17.41-2.18,1.84-3.8,2.54-1.89-.35-.56-2.08-6.17-.14a15.83,15.83,0,0,0-1.91.39c-.66.21-1.36.47-2.09.76-1.45.59-3,1.32-4.58,2.11s-3.18,1.63-4.73,2.44c-.77.42-1.54.8-2.26,1.22L86.91,24.7c3-1.26,2.29-.33,1.14.57-2.64,1.28-4.57,1.15-6.47,2.48l-.8-1c.79.28-.82,1.39-2.72,2.54a25,25,0,0,0-4.36,3c-1.91,0,3.64-2.92,4-3.77l-1.83.88c-.54.28-1,.56-1.45.8l-2.13,1.18-2.43,1.35c-1.29.73-2.61,1.41-7.76,4.35-4.87,4.16,1.58.43-.42,3-2.28,1.57-4.45,3.25-6.77,4.88-1.16.81-2.36,1.61-3.62,2.38a44.92,44.92,0,0,1-3.92,2.41l2.27-.24c-4,3.36-7.23,5.86-10.27,8a70.67,70.67,0,0,1-8.75,5.82A126.73,126.73,0,0,0,22,72.9L18.66,77l-1.5,1.87-1.29,1.83A94.07,94.07,0,0,0,9.34,91.15c-1.18,2.32-1.43,3.72-1.1,4.29s1.28.38,2.58-.3c2.61-1.25,6.61-4.33,9.94-7.09l2.34-2c.71-.63,1.43-1.12,2-1.57l1.85-1.46c2.89-2.21,5.55-4.32,8-6.39S40,72.86,42.35,71c4.58-3.85,9.15-7.12,13.7-10.76l1.71-1.37.86-.69.91-.64q1.81-1.28,3.68-2.61c2.51-1.76,5.06-3.67,7.86-5.52l9.09-5.56c.81-.48,1.62-1,2.48-1.47L85.28,41Z" transform="translate(-1.12 -0.76)"/><path class="cls-1" d="M59.36,152.1c45.33-66.67,198.66-102.67,284,0,5.33,21.33-14.67,43.33-42,26-44-48.67-132.67-66-207.34,2C76.85,194.77,49.36,178.1,59.36,152.1Z" transform="translate(-1.12 -0.76)"/><path class="cls-2" d="M136.56,92.72l1.86-.08C138.32,92.44,137.83,92.4,136.56,92.72Z" transform="translate(-1.12 -0.76)"/><path class="cls-2" d="M163.7,146.68a2.31,2.31,0,0,0-.35.21C163.61,146.77,163.68,146.72,163.7,146.68Z" transform="translate(-1.12 -0.76)"/><path class="cls-2" d="M205.24,97.79h-.08c-.14,0-.31.07-.44.12Z" transform="translate(-1.12 -0.76)"/><path class="cls-2" d="M122,113.74a120.59,120.59,0,0,1,13.45-4.69c2-.54,3.78-1.11,5.59-1.53l5.3-1.2,2.63-.61c.88-.21,1.79-.36,2.7-.55,1.84-.37,3.73-.78,5.75-1.25,1-.26,2.06-.45,3.15-.66l3.41-.71,3.69-.82,4.06-.78c10.89-1.57,22.59-3.09,33.39-3.14a10.15,10.15,0,0,1,2.09-.49,22.76,22.76,0,0,1,2.39-.14c1.67,0,3.47,0,5.31.14s3.68.3,5.46.4a27.09,27.09,0,0,0,5.05-.1c.75.39,1.49.77,2.22,1.23a14.9,14.9,0,0,1,6.6.7l-.17.26a17.62,17.62,0,0,1,2.41,0c.79.07,1.56.23,2.28.36a21,21,0,0,0,3.47.53l-.19.25,3.74.65-.73.26a28,28,0,0,1,4.08.55c1.34.25,2.68.54,4,.86s2.61.65,3.84,1.07,2.42.91,3.56,1.39l0-1.23a58.59,58.59,0,0,0,6.39,2.58c1.86.74,3.55,1.29,5.22,1.83a43,43,0,0,1,5,1.84A39.67,39.67,0,0,1,282.6,114l-.24.2a23,23,0,0,1,4.22,1.2,34.7,34.7,0,0,1,3.56,1.76c1.12.63,2.16,1.3,3.18,2l1.5,1c.49.35.95.76,1.42,1.14a67.89,67.89,0,0,0,5.9,4.53c.53.36,1.1.7,1.66,1.06s1.13.75,1.74,1.11a35.13,35.13,0,0,0,4,2.07c-1.46-.64.17.87-.1,1,1.18.8,2.42,1.58,3.55,2.38s2.17,1.58,3.15,2.18c1.95,1.19,3.54,1.75,4.34.93,3.2,2.77,2.09,2.81,1.9,3.82.66-.75,3.57,1.53,6,3.81l-1.36-.79,3.5,3.2c1.14,1.09,2.19,2.27,3.3,3.4l.14-2.67c3,4.16-.85,2.5,2.7,5.81l1.14-1.07.41.51.24.34c.16.23.31.46.43.67a4,4,0,0,1,.31.62c0,.25,0,.5-.05.73a3.72,3.72,0,0,1-.28,1.23,13.9,13.9,0,0,1-.4,1.73,30.46,30.46,0,0,1-2.93,6.52,17.65,17.65,0,0,1-9.11,11,16.81,16.81,0,0,1-7.4,1.5,25.14,25.14,0,0,1-8.46-1.77l-1.07-.41-1.07-.49a23,23,0,0,1-2.11-1l-.33-.17-.24-.12c-.17,0-.29-.22-.41-.31l-.06-.06-.05,0-.12-.12-.52-.51-1-1c-.69-.68-1.35-1.37-2-2l-2.1-1.94c-1.38-1.3-2.76-2.59-4.2-3.8l-2.12-1.84c-.69-.62-1.4-1.23-2.13-1.8l-4.27-3.52q-2.18-1.67-4.29-3.37c-1.4-1.14-2.87-2.16-4.27-3.27l-.45-1.67c.1-.43-.34-.8-1.09-1.08a22.07,22.07,0,0,0-2.83-.7c-2.1-.44-4.22-.88-4.35-1.8l-3.3-.78c-.69-.69-2.3-1.86-.66-1.47-2.71-1.41-2.94-1.11-5.15-1.55-.85-.76-1.7-1.56-2.58-2.29-1.37-.64-2.74-1.24-4.1-1.79-.68-.27-1.35-.54-2-.79l-2.06-.65c-1.37-.42-2.74-.81-4.11-1.19s-2.76-.62-4.15-.93c-5.54-1.23-11.22-1.94-17.42-3.18-7.34-2.21-18.47-3.21-29.6-2.19l-4.16.47c-1.38.17-2.76.29-4.12.56l-4,.72-2,.36c-.65.14-1.29.3-1.93.45l-3.74.91c-1.22.29-2.41.59-3.54,1-2.28.7-4.43,1.33-6.37,2-10.74,4.12-22.55,7.48-34.13,12.34s-22.73,11.1-31,19.58c-.74.28-2,1.93-1.81,2.07-2.78,2.21-5.38,4.53-8.08,6.79a15.87,15.87,0,0,1-6.08,3.2l-.71.16a5.84,5.84,0,0,1-.83.16c-.33,0-.7.13-1.13.14a12.14,12.14,0,0,1-1.38,0,13.29,13.29,0,0,1-1.62-.09,17,17,0,0,1-3.69-.89,16.57,16.57,0,0,1-9.42-9.24,23.46,23.46,0,0,1-1.22-4.38c-.91-5.89.35-11.06-2-10.63-1,.27-3.15,1.83-5.19,6.33a22.9,22.9,0,0,0-1.84,9.39,25.76,25.76,0,0,0,1,6.68,26.29,26.29,0,0,0,3.64,7.46l-.71-.23a26.27,26.27,0,0,0,15.69,9.63,21.38,21.38,0,0,0,14.87-2.48c.57.44,1.54.34,2.76,0a14.81,14.81,0,0,0,3.87-2.12c.33-.24.66-.46,1-.72l.94-.81.91-.81c.3-.26.44-.42.66-.63A9.46,9.46,0,0,1,101,182.8l-.06.3a18.43,18.43,0,0,1,3.5-3.77,40.52,40.52,0,0,1,4.24-2.88c1.46-.88,2.88-1.81,4.24-2.75a17.58,17.58,0,0,0,3.72-3.21,2,2,0,0,1-1,1.78c3.52-3,8.66-6.82,9.64-5.9.57-.38,1.14-.8,1.75-1.18l1.88-1.14,3.92-2.33c1.32-.81,2.74-1.48,4.1-2.23s2.73-1.49,4.09-2.18,2.7-1.33,4-2,2.48-1.34,3.65-1.91a40.68,40.68,0,0,0,5.8-3.5l-.34.51a11.61,11.61,0,0,1,4.21-2.21c.65-.2,1.32-.39,2.09-.66a23.72,23.72,0,0,0,2.68-1c.29.1.62.1.59.19a16.64,16.64,0,0,1,3.61-1.7c1.4-.46,3-.79,4.48-1.13,3-.72,6.05-1,7.76-1.63l.37.84c.72-.14,1.43-.31,2.15-.42l2.17-.32,4.33-.65-3.27.22c.2-.64.74-.92,1.51-1a11.9,11.9,0,0,1,3,.17,21.41,21.41,0,0,0,8.47-.18,15.17,15.17,0,0,0,4.5-.73c1.52-.4,3.06-1,4.63-1.51a22.78,22.78,0,0,1,4.77-1.18,10.72,10.72,0,0,1,4.75.26c3.13-.76-2.84,1.52,1.73,1.21,0,1.29-2.17.53-1.15,1.69,4.44-.09,6.88,2.24,12.28,2.45v1a19,19,0,0,1,5.07.55,42.51,42.51,0,0,1,4.43,1.6c1.4.53,2.69,1.17,4,1.61a10.26,10.26,0,0,0,3.73.67c3.49.91,4.35,2,5.27,3s1.85,2,5.65,2.58c.68.81,1.33,1.66,2,2.49,2.68,1.62,2.81-.52,5.55,1.79-.59.64,3.5,2.75,1.33,2.45,3,2.54,6.61,4.27,10.3,6.49a30.86,30.86,0,0,1,2.77,1.78c.91.64,1.83,1.31,2.74,2a31.71,31.71,0,0,1,2.6,2.48,22.11,22.11,0,0,1,2.41,2.94c1.36.16,2.83,1.32,4.21,2.47s2.54,2.41,3.58,2.6c0,.11.17.42.52.86l.58.71a2.78,2.78,0,0,0,.8.76l2,1.31c.52.34,1,.69,1.53,1,1.94,1.16,3.08,2-.56,1-.64-.17-1.55-.78-1.35-1a3.84,3.84,0,0,1-1.41.3l.41.35.26.24.53.47a10.93,10.93,0,0,0,1.1.83,22.31,22.31,0,0,0,2.35,1.36,24.31,24.31,0,0,0,5.12,1.66,98.27,98.27,0,0,0,11.26,1.33c-2.41-.43-5.47-.9-3.31-1.24a35.58,35.58,0,0,0,7.41.46l-1.56.88a32.45,32.45,0,0,0,11.63-1.86c-.64-.11-1.27-.23-1.89-.37,1.39-.37,2.59-.61,3.68-.94a20.59,20.59,0,0,0,3.08-1,12,12,0,0,0,5.68-5c.76-1.32-.47-.58-1.33-.13s-1.4.68.55-1.48a31.91,31.91,0,0,0,7.86-10.49,33,33,0,0,0,3.1-14.37c-.55.47-.85.06-1.07-.76-.11-.41-.18-.93-.3-1.49-.07-.35-.14-.71-.22-1.07s-.17-.92-.28-1.33l.89-.64c-.26-.82-.49-1.55-.68-2.21l-.26-.93-.11-.43a.59.59,0,0,0-.18-.36,22.23,22.23,0,0,1-1.62-2,6.14,6.14,0,0,1-1.09-2.28c-.09-1-.07-1.89-3.14-4.52l1,.06-2.94-.17c-3.06-2-3.43-3-3.88-4s-1.05-2.12-4.82-3.93c2.35,2.07-.48,2.6-2.9-.39l1.35,0c-.83-.67-1.43-1-1.95-1.41a6,6,0,0,1-1.44-1.17c1.31.44,1.45-.6-1-2.53l2.4.48-5.67-2.55a21.23,21.23,0,0,0-2.63-2.81c-1-.87-2.18-1.67-3.23-2.46-2.12-1.56-3.93-2.94-4.3-4.06a32.13,32.13,0,0,0-4.21-3.1c-2.32-1.5-5-3-6.33-3,2.16.3-2.24-3-.37-3.06a26.42,26.42,0,0,1-6.22-2.13,30.79,30.79,0,0,1-3.34-1.79,14,14,0,0,1-1.36-1,7,7,0,0,1-1.06-.87l.58.14a60.31,60.31,0,0,0-7-3.67c-1.15-.49-2.25-1-3.4-1.38l-3.38-1.09c-2.23-.71-4.41-1.41-6.6-2.25a50.19,50.19,0,0,1-6.73-2.69c.07,1.24-4.77-1-4,.79a41.54,41.54,0,0,1-7.13-1.76c-2.19-.72-4.18-1.62-6-2.14-3.72-1.15-6.75-1.76-9,.11-4.62-.5-5.27-1.9-7.63-2.51l1.13-.07c-2.18-.21-4-.49-5.54-.55l-4.18-.29c-1.27-.1-2.46-.21-3.74-.34-.65-.06-1.31-.15-2-.2l-2.27-.13a13.33,13.33,0,0,0-3.87,1.22,9.09,9.09,0,0,1-2.26.52,20.23,20.23,0,0,1-3.45,0c1.87-.86-.49-.69-2.65-.67,1.38-.14,1.82-.46-1-1a5.49,5.49,0,0,1-1.59.57c0-.07-.14-.12-.08-.21-3.61.32-3,.58-1.3.68-.08.13.07.3.59.53a14.8,14.8,0,0,0-3.22-.45c-1.16,0-2.36.06-3.46.11-2.19.1-4,.13-4.25-.58a62.93,62.93,0,0,0-7.56,1.1c-2.36.47-4.59.88-6.74,1.44l-6.32,1.71-3.14.82c-1,.32-2.11.62-3.19.91-1.14-.52.79-1.6,3.3-2.4L159,87.22c-.16-1.07,3.48-1.35,5.38-2a22.84,22.84,0,0,0-5.8.69,42.83,42.83,0,0,0-5.79,1.8,57,57,0,0,1-12.34,3.51L139,92.62l-.55,0c.16.43-1.57,1.57-2.77,2.12-1.48-.46-.6-2.07-4.76-.52a13,13,0,0,0-3,.77,22.11,22.11,0,0,0-3.43,1.58c-2.33,1.27-4.7,2.76-6.71,3.87,2.34-.81,1.81,0,1,.68-2,.87-3.52.64-4.91,1.71l-.73-1c1.3.73-4.69,3.58-5.14,4.49-.76-.12-.11-.71.78-1.36s2-1.31,2.12-1.75l-2.48,1.22-1.6.88-1.83,1c-1,.56-2,1-5.81,3.29-3.58,3.28,1.34.58,0,2.71-1.71,1.18-3.31,2.48-5,3.71a30.44,30.44,0,0,1-5.64,3.6l1.87.07-2.11,1.79c-.68.55-1.33,1.08-1.92,1.62-1.21,1-2.35,2-3.46,2.79s-2.24,1.5-3.29,2.25-2.16,1.39-3.33,2A78.58,78.58,0,0,0,70.29,138l-1.16,1.71c-.36.56-.66,1.14-1,1.68-.61,1.09-1.16,2.11-1.66,3s-1,1.82-1.34,2.64-.65,1.63-.9,2.35A29.45,29.45,0,0,0,63.16,153c-.44,1.89-.32,3.08.12,3.55s1.24.31,2.23-.26A18.12,18.12,0,0,0,68.8,154c1.19-1,2.3-2.14,3.52-3.11,2.34-2,4.14-3.77,4.14-3.77,2-1.61,3.88-3.13,5.58-4.65s3.52-2.8,5.12-4.21c.78-.71,1.61-1.37,2.44-2s1.61-1.32,2.4-2l2.36-2,2.47-1.93,2.48-2,1.27-1,1.34-1,5.67-4.13c2.06-1.32,4.25-2.71,6.61-4.17S119.22,115.22,122,113.74Z" transform="translate(-1.12 -0.76)"/><path class="cls-1" d="M111.36,212.76c28.66-45,132.66-71.33,177.33,0,8,28-18,40.67-36.67,27.34-14-16.67-59.33-46-106,2C124.69,253.43,104,234.1,111.36,212.76Z" transform="translate(-1.12 -0.76)"/><path class="cls-2" d="M160.62,170.56l1.29.06C161.83,170.43,161.48,170.35,160.62,170.56Z" transform="translate(-1.12 -0.76)"/><path class="cls-2" d="M175.59,227.58c-.06.07-.14.13-.19.2C175.55,227.67,175.59,227.62,175.59,227.58Z" transform="translate(-1.12 -0.76)"/><path class="cls-2" d="M206.48,178.47h0c-.09.05-.2.07-.28.12Z" transform="translate(-1.12 -0.76)"/><path class="cls-2" d="M153.29,189.15c1.64-.74,3.21-1.25,4.63-1.77a39.32,39.32,0,0,1,4-1.23c1.27-.34,2.46-.65,3.61-.93l3.43-.69c4.52-.93,9-1.86,16.21-3.63,6.94-1.06,14.36-2.27,21.23-2.43,1.63-.86,3.9-.7,6.23-.6s4.69.55,6.71,0l1.34,1.19a6.08,6.08,0,0,1,4.19.38l-.13.26c2.07-.34,4.14.63,5.19.47l-.15.26a20.79,20.79,0,0,1,2.35.47l-.5.26a29.11,29.11,0,0,1,5.12.85,28.18,28.18,0,0,1,4.54,1.87l.18-1.17c1.48.85,2.7,1.55,3.85,2.06a34.38,34.38,0,0,0,3.29,1.21,23.76,23.76,0,0,1,3.05,1.42,14.77,14.77,0,0,1,1.57,1q.41.28.81.63a10,10,0,0,1,.79.8l-.22.19a13.53,13.53,0,0,1,4.92,2,26.61,26.61,0,0,1,3.35,3.27c.5.58,1,1.1,1.54,1.71a17.79,17.79,0,0,0,1.63,1.75,20,20,0,0,0,4.49,3c-.93-.46-.14.72-.4.86a47.06,47.06,0,0,0,4,3.29c1.17.88,2.27,1.27,3.17.58,1.68,2.14.82,2.16.34,3,.39-.31,1-.07,1.76.45a13.07,13.07,0,0,1,2,2.28l-.86-.59,1.85,2.42.23.3.15.18.29.35c.08.1.17.19.24.29l.13.35a7.69,7.69,0,0,0,1.5-1.39.92.92,0,0,1,0,.69,1,1,0,0,1-.23.44,1.66,1.66,0,0,1-.62.44c-.46.15-.64.43-.19,1.74l1.53-.33c.44,4.24-2,6.79-3.67,9.54a16.39,16.39,0,0,1-4.42,7.79,15.13,15.13,0,0,1-8.8,4,17.51,17.51,0,0,1-10.45-2.19,12.72,12.72,0,0,1-1.18-.71l-.32-.24-.25-.2-.21-.29-.12-.17-.27-.33c-.41-.51-.84-1-1.25-1.48-1.66-2-3.33-3.81-5-5.65l.09-1.45c.4-.79-1.07-1.19-2.59-1.51s-3.05-.61-2.9-1.48c-.76-.22-1.52-.45-2.3-.63-.35-.6-1.3-1.61-.14-1.32-1.72-1.21-1.94-1-3.49-1.3-.46-.69-.92-1.39-1.42-2.05a34.48,34.48,0,0,0-10.94-4.8c-3.8-1.05-7.7-1.82-12-2.86a32.39,32.39,0,0,0-9.3-2.17,48.34,48.34,0,0,0-11.45.44,57.8,57.8,0,0,0-5.77,1.18c-1.86.53-3.69,1.09-5.4,1.73a69.28,69.28,0,0,0-9,4.14c-1.66,1.13-3.46,2-5.18,3.08-.88.5-1.77,1-2.69,1.45l-2.69,1.49c-.91.49-1.85,1-2.76,1.46l-2.74,1.54c-1.88,1-3.65,2.12-5.48,3.23a69.56,69.56,0,0,0-10.12,7.52l-.08,0-.13.09a1.48,1.48,0,0,1-.31.15l-.16.08-.1,0-.24.1-.93.43c-1.24.53-2.43,1.13-3.65,1.64-.36-.16-1.15.43-1.14.63a15.81,15.81,0,0,1-8.9-2.12l-.42-.26-.5-.29-.64-.44a18.67,18.67,0,0,1-3.4-3.12,22.3,22.3,0,0,1-4.79-11.23c-.33-2-.42-3.78-.74-5.11s-.84-2.2-1.89-2.12-2.66,1-4.5,3.92a19.6,19.6,0,0,0-2.44,6,25.23,25.23,0,0,0-.23,9.92l-.49-.25a25,25,0,0,0,2.59,6,21.54,21.54,0,0,0,3.48,4.47,16.74,16.74,0,0,0,8.8,4.6c-.07,1.25,1.73,2.2,3.81,2.67,1,.29,2.13.38,3.08.56a7.8,7.8,0,0,1,2.31.51l-.23.16c3-.52,5.84-.23,8.8-.31s5.94-.55,8.09-2.36a1.61,1.61,0,0,1-1.14,1.38l1.39-.69.36-.18.45-.24.94-.52,1.84-1,1.43-1.41.7-.67c.17-.16.26-.23.39-.34a5.39,5.39,0,0,1,.67-.46,1,1,0,0,1,1.07-.07,51.78,51.78,0,0,1,4.1-3.94c1.44-1.38,3.06-2.56,4.52-3.85s2.95-2.35,4.16-3.52a16.36,16.36,0,0,0,3-3.2l-.07.49a4.3,4.3,0,0,1,2.23-2.09,11.82,11.82,0,0,0,2.76-1.65c.21.1.44.09.44.17a10,10,0,0,1,4.68-2.75c1.84-.7,3.71-1,4.7-1.66l.38.81c.86-.32,1.75-.49,2.62-.75a26.94,26.94,0,0,1,2.65-.65l-1,.06-1,.14a1,1,0,0,1,.82-1,6.84,6.84,0,0,1,1.9.17,20.16,20.16,0,0,0,2.5.27,5.59,5.59,0,0,0,2.79-.61c1.85.09,3.68-1.29,5.71-2.34.5-.28,1-.55,1.54-.78a10.09,10.09,0,0,1,1.56-.5,4.59,4.59,0,0,1,3.08.19c2.1-.84-2,1.59,1,1.15-.11,1.28-1.44.6-.86,1.71a5.34,5.34,0,0,1,1.91.23,17.94,17.94,0,0,1,1.68.75,9.42,9.42,0,0,0,4,1.12l-.14,1a7.69,7.69,0,0,1,3.22.4,16.19,16.19,0,0,1,2.66,1.36c1.63,1,3,2,4.72,1.9a3.72,3.72,0,0,1,2.95,2.58c.4.88.82,1.68,3.34,2.07l.78,2.12c1.49,1.29,2.12-.55,3.53,1.28-.62.6,1.78,2.23.27,2.08,1.5,2,3.64,3.26,5.74,4.87.5.41,1,.82,1.52,1.28l.17.17.09.09.16.17.67.72.7.77a5.69,5.69,0,0,0,.84.62l.94.65.79.58c.42.33.88.62,1.32.95l1.34,1c.47.34.94.69,1.42,1.07a5.7,5.7,0,0,1,2.1,0c.75.13,1.54.35,2.33.52,1.56.41,3.11.64,3.94.22.05.36,2.34.83,4,1,.82.15,1.49.22,1.61.41s-.31.46-1.7.74c-.48.09-1.31,0-1.22-.29-.25.3-.51.62-.77.9a11.31,11.31,0,0,0,8,.32c2.57-.73,4.91-1.93,7.6-2.76-1.68.3-3.76.91-2.54-.12a23.59,23.59,0,0,0,2.44-.74l1.21-.44,1.18-.52-.64,1.22a30.21,30.21,0,0,0,7.09-3.76c-.5,0-1-.05-1.49-.12.85-.47,1.59-.86,2.31-1.18a20.23,20.23,0,0,0,2-1.07,7,7,0,0,0,3-4.21c.24-1-.58-.46-1.19-.11s-1,.54,0-1.17a28.42,28.42,0,0,0,4.71-7.67,29.33,29.33,0,0,0,2.16-9.63c-1.14.57-1.14-1.05-1.46-2.67l1-.27a8.47,8.47,0,0,1-.62-3.07,2,2,0,0,1,.48-1.26,2.2,2.2,0,0,0,.52-1.29,3.63,3.63,0,0,0-.13-1.19l-.12-.37c-.06-.21-.13-.44-.21-.67-.16-.49-.35-1-.57-1.63.29.21.59.43.88.66a12.88,12.88,0,0,0-1.31-.94l-.63-.39a2.53,2.53,0,0,0-.7-.34c-.8-.75-1.35-1.28-1.76-1.74-.2-.22-.42-.5-.51-.61a3.6,3.6,0,0,1-.25-.39,3,3,0,0,1-.29-1.33c-.05-.83-.24-1.71-2.86-3.15.67.83.37,1.36-.24,1.38a2.77,2.77,0,0,1-2.16-1.59l1.18-.07c-1.07-1-1.68-1.13-2.13-2,.95.35,1.39-.51-.09-2.08l1.84.37-3.9-2a16.69,16.69,0,0,0-3.36-4.22,19.05,19.05,0,0,1-1.62-1.83,2.69,2.69,0,0,1-.74-1.5,35.77,35.77,0,0,0-2.56-2.53,18,18,0,0,0-2.22-1.72,3.85,3.85,0,0,0-2-.62c1.67.12-1.09-2.46.42-2.66a13.4,13.4,0,0,1-4.25-1.76,9.05,9.05,0,0,1-3.67-2.91l.4.11a27,27,0,0,0-2.23-1.77,20.59,20.59,0,0,0-2.31-1.31c-1.54-.78-3.07-1.4-4.56-2s-3-1-4.52-1.67a23.29,23.29,0,0,1-2.2-1.06c-.73-.39-1.49-.76-2.23-1.24-.13,1.19-3.31-.68-3,1a15.1,15.1,0,0,1-2.51-.62,22,22,0,0,1-2.29-.78c-1.46-.58-2.78-1.27-4-1.82-2.47-1-4.55-1.4-6.24.54a7.38,7.38,0,0,1-3.09-1.08,7.68,7.68,0,0,0-1.95-1.16l.79-.11-3.76-.39-2.83-.18c-1.71-.11-3.22-.35-5.41-.51-2.22.36-2.64,2.43-6.47,1.8,1.26-.85-.32-.69-1.77-.66.92-.15,1.22-.46-.7-1a3,3,0,0,1-1.07.57c0-.07-.09-.12-.06-.21-2.42.33-2,.59-.86.69,0,.13.05.29.4.52a7.27,7.27,0,0,0-2.17-.44,21.91,21.91,0,0,0-2.31.06c-1.47.07-2.67.08-2.88-.63a33.61,33.61,0,0,0-5.05.93c-1.57.4-3.05.77-4.47,1.25l-8.33,2.86c-.81-.59.41-1.54,2.07-2.2l-4.12,1.19c-.2-1.05,2.27-1.13,3.52-1.63a10.56,10.56,0,0,0-3.92.37,22.19,22.19,0,0,0-3.81,1.45,39.46,39.46,0,0,1-3.9,1.62,16.13,16.13,0,0,1-4.3.94l-.91,1.19-.39,0c.17.43-.91,1.39-1.67,1.85-1.1-.58-.68-2.05-3.43-.94a8.51,8.51,0,0,0-4.3,1.66c-1.51,1-3,2.14-4.3,3,1.58-.52,1.3.17.8.75-1.32.64-2.47.21-3.32,1.07l-.69-1.07c1.05.82-2.9,2.83-3.09,3.61-.59-.2-.19-.66.36-1.17s1.29-1,1.29-1.4c-1.33.67-2.12,1.16-2.69,1.5l-1.2.71c-.63.4-1.31.71-3.82,2.32-2.19,2.51,1.1.7.41,2.45-1.1.85-2.09,1.81-3.19,2.7a12.92,12.92,0,0,1-3.74,2.43l1.47.32a56.43,56.43,0,0,1-4.75,4.37,25.82,25.82,0,0,1-4.54,2.71,49.72,49.72,0,0,0-3.35,5.67l-.63,1.23c-.19.41-.35.83-.52,1.22-.32.78-.6,1.51-.85,2.19s-.46,1.31-.63,1.9-.27,1.17-.36,1.69a15.38,15.38,0,0,0-.27,2.58,3.55,3.55,0,0,0,.78,2.71,1.81,1.81,0,0,0,1.95.1,9.22,9.22,0,0,0,2.42-1.23c.83-.55,1.57-1.23,2.39-1.79,1.56-1.17,2.71-2.25,2.71-2.25a147.86,147.86,0,0,0,12.66-10.77A71.79,71.79,0,0,1,153.29,189.15Z" transform="translate(-1.12 -0.76)"/><circle class="cls-1" cx="199.24" cy="282" r="29"/><path class="cls-2" d="M222.11,309.94l-.73,0C221.51,310.07,221.74,310.14,222.11,309.94Z" transform="translate(-1.12 -0.76)"/><path class="cls-2" d="M209.6,249c.05,0,.11,0,.16-.07S209.62,249,209.6,249Z" transform="translate(-1.12 -0.76)"/><path class="cls-2" d="M201.27,301.85h0a.5.5,0,0,1,.08-.12Z" transform="translate(-1.12 -0.76)"/><path class="cls-2" d="M216,295.9c-.43.36-.83.66-1.22.93a7.64,7.64,0,0,1-1.18.59,12.6,12.6,0,0,1-2.14.69,12.29,12.29,0,0,0-4.3,1.91,43.5,43.5,0,0,1-5.83,1.83,1.57,1.57,0,0,1-.83.79,2.49,2.49,0,0,1-1,0,4.26,4.26,0,0,0-1.07,0,1.65,1.65,0,0,0-1,.43l-.31-1a1.72,1.72,0,0,1-.72.43.55.55,0,0,1-.57-.39l.08-.27c-.74.54-1.31,0-1.69.23l.11-.26-.73-.14.25-.33a2.85,2.85,0,0,1-3-.8l-.48,1.06a2.61,2.61,0,0,0-1-1.07,9,9,0,0,0-1.09-.39,3.05,3.05,0,0,1-1-.47,1.67,1.67,0,0,1-.41-.46,3,3,0,0,1-.24-.78l.21-.19a2,2,0,0,1-1.93-.43,3.53,3.53,0,0,1-.62-1.49,4.14,4.14,0,0,0-.46-1.54,2.5,2.5,0,0,0-1.71-.93c.47.09.44-.42.69-.54-.22-.2-.43-.42-.67-.6a2.51,2.51,0,0,0-.69-.52,2.65,2.65,0,0,0-2.28.17c-.4-.86.36-1,1.12-1.42a1.44,1.44,0,0,1-1.9-.89l.48.19a13.71,13.71,0,0,1-.91-1.89c-.57.29-1.15.58-1.72.89.23-1.29,2.16-.85,1.44-1.78l-1.52.33a3.59,3.59,0,0,1,1.26-2.28c.66-.69,1.58-1.33,2.1-2,.24-2.78-.14-5.72.42-8.75s2.11-5.92,5-6.91l1,.65c.63.55.42-.12.26-.84s-.32-1.49.28-1c0-.34,0-.68,0-1,.35.13.84.17.84.65.5-.28.33-.51.36-1.18l1.1.5A3.41,3.41,0,0,0,190,265c.39-.35.77-.7,1.16-1.08a5.12,5.12,0,0,1,2.84-1.75c1.7.7,3.5.23,5.54-.14l.76-.21.77-.14c.51-.1,1-.25,1.54-.37l1.49-.26.71-.14.66-.06a4.35,4.35,0,0,1,1.86-.09,6.94,6.94,0,0,1,1.69.72,10.53,10.53,0,0,1,2.68,2.8l.56.77.51.81c.33.53.71,1,1,1.44a5.68,5.68,0,0,0,1.21,1.14,4.14,4.14,0,0,0,1.62.77c-.08.25.54.22.7.09.36.6.8,1.13,1.11,1.74s.67,1.19.93,1.83c0,0,.12.28.35.74.11.22.26.49.43.79s.28.67.46,1c.78,1.45,1.48,3.34,2.51,4.88s2.22,2.79,4.14,2.49a6.17,6.17,0,0,0,3.35-2.09,12.51,12.51,0,0,0,1-1.18,15.42,15.42,0,0,0,.91-1.51c.31-.57.62-1.2.93-1.91s.5-1.46.75-2.32l.4.06a11.56,11.56,0,0,0-.86-4.71,6,6,0,0,0-2.92-2.85c.91-.72.57-1.42,0-2.05s-1.25-1.2-1.22-1.74l.2,0c-1.41-.39-1.74-1.53-2.2-2.67s-.95-2.29-2.29-2.48c.19-.07.69-.51,1.06-.16-1.38-.94-3.33-2-2.59-3.09-.84-.53-1.72-1.15-2.62-1.79s-1.93-1.14-2.9-1.63c-2-.88-4-1.4-5.48-.77l.29-.29a1.79,1.79,0,0,1-1.75.16,2.18,2.18,0,0,0-1.67-.29c0-.19-.12-.3-.08-.37a4.13,4.13,0,0,1-2.92.06,5.81,5.81,0,0,0-2.58-.28l0-.9c-1,0-2,0-2.94,0l1.08.25c-.26,1.21-.76.8-1.51.28a2.15,2.15,0,0,0-2.8-.2c-1-.14-1.88,1.3-2.62,2.59a9.41,9.41,0,0,1-1.12,1.65,1.14,1.14,0,0,1-1.29.48c-.57,1.33.3-2-.77-.82-.38-1.22.42-.93-.19-1.83-.59.47-1.23.27-1.9.19a2.21,2.21,0,0,0-2.06.62l-.44-.9a2.87,2.87,0,0,1-.62.73,2.39,2.39,0,0,1-.7.47,5.47,5.47,0,0,1-1.55.36c-1.06.1-2,.32-2.23,1.46-.79,1-1.54.53-2.22.3s-1.32-.33-1.75,1.21c-.54-.15-1.1-.3-1.65-.43-1,.59.48,1.78-.85,2.11-.52-.68-1.62.57-1.64-.5a3.49,3.49,0,0,0-1.74,1.37,13.71,13.71,0,0,0-1.15,2,7.71,7.71,0,0,1-3.38,3.94,2.1,2.1,0,0,1,.07,2c-.19.63-.4,1.22,0,1.76-.35-.12-.77.71-1.18,1.25s-.75.83-1.06-.46c0-.22.13-.51.37-.37l-.78-.64c-1.35.61-1.44,1.73-1.37,2.82,0,.55.12,1.11.14,1.65a3.33,3.33,0,0,1-.17,1.57c.48-.53.61-1.36,1.11-.63l-.62,1.86-.7-.59-.6,1.4c-.18.47-.32.95-.49,1.43l1.07-.23a10.2,10.2,0,0,1-1.39,1.55c-.39.47-.57,1,.12,1.92s1.45-1.23,1.68.29a28.22,28.22,0,0,0-1.29,3.35,16.4,16.4,0,0,0-.62,3.94c1.11-.36,1.16.31,1.5.94l-1,.22c1.8,2.37-2.08,1.39-.35,3.82l-.74-.07,2.2.18c1.25.88.82,1.31.53,1.78s-.47,1,1.24,1.72c-.51-.9,1.9-1.19,1.91.07l-1,.07c.43.56.86.62.88,1.1-.65-.16-1.38.35-.79,1.22l-1.39-.14c.82.37,1.64.7,2.44,1a2.41,2.41,0,0,0,.18,1.3,10.51,10.51,0,0,0,.67,1.13c.47.72.84,1.35.44,2a3.23,3.23,0,0,0,.23.48,8.51,8.51,0,0,0,.66,1c.57.71,1.33,1.4,2.14,1.2-1.15.09-.22,1.67-1.38,2a4.51,4.51,0,0,1,2.35.79c.7.51,1.34,1.1,1.33,1.87l-.23,0a6,6,0,0,0,1.83,1.95,14,14,0,0,0,2.19,1.1c.72.34,1.47.59,2.15.95a6,6,0,0,1,1.88,1.58c.42-1.08,1.69.24,2-1.27a4.07,4.07,0,0,1,2.22.8c.64.39,1.18.89,1.72,1.28,1.05.8,2.08,1,3.23-1,1.45.1,1.41,1.5,2.14,1.85l-.4.18c1.43,0,2.33.07,3.14.14s1.52.08,2.56.2c1.06-.41,1.21-2.46,2.95-2.06-.53.87.18.68.85.65-.41.15-.54.47.4,1a1.35,1.35,0,0,1,.45-.58.54.54,0,0,1,0,.2c1.11-.39.87-.67.35-.7a.78.78,0,0,0-.23-.51c1.26.95,3.14-.54,3.54.86,3.32-1.08,5.13-3.26,7.26-4.92.6.54.31,1.41-.31,2l1.67-1.1c.47,1-.77,1.05-1.24,1.51a2.6,2.6,0,0,0,1.88-.36,4.64,4.64,0,0,0,.77-.59c.23-.23.45-.5.67-.76.89-1.06,1.74-2.09,3.3-2.32l-.05-1h.22a1.68,1.68,0,0,1,0-1.54c.88.47,1.35,1.68,2.35.7.71,0,1.24-.65,1.63-1.43s.59-1.76.87-2.45c-.63.46-.84-.07-.88-.52.42-.5,1.4-.19,1.39-.87l1,.73c-1.09-.53.05-2.2-.23-2.69,1,.23,0,1.3.49,1.86a24.46,24.46,0,0,0,2.15-3.53c-.08-1.71-1.17-.37-1.77-1.5a12.37,12.37,0,0,0,.34-1.87,2.55,2.55,0,0,1,1-1.66l-1.2-.05c0-2.35.53-3.4,2-4.56-.15-.57-.3-1.09-.46-1.57s-.4-.95-.6-1.37a14,14,0,0,0-1.22-2.12,9.1,9.1,0,0,0-2.52-2.37,3.67,3.67,0,0,0-3.83-.34,5.88,5.88,0,0,0-2.23,1.66l-.59.7c-.14.18-.21.29-.21.29A6,6,0,0,0,217.2,290,11.7,11.7,0,0,1,216,295.9Z" transform="translate(-1.12 -0.76)"/></svg>