<svg xmlns="http://www.w3.org/2000/svg" viewBox="0 0 316.75 456.56"><defs><style>.cls-1{fill:#f9cbcc;}.cls-2{fill:#f29699;}.cls-3{fill:#6f91cb;}.cls-4{fill:#399;}.cls-5{fill:#cdcccc;}.cls-6{fill:#fff;}.cls-7{fill:#f9f19a;}</style></defs><title>jukebox</title><g id="Calque_1" data-name="Calque 1"><path class="cls-1" d="M13.94,455.67V144.26c3.91-43.93,21.63-80.58,51.23-106,26.43-22.67,61-35.16,97.39-35.16,36.56,0,71.08,12.56,97.2,35.39,29.19,25.49,46,62.06,48.68,105.73V455.67Z" transform="translate(-2.61 -1.11)"/><path class="cls-2" d="M162.56,5.11c36.07,0,70.13,12.39,95.88,34.89,28.77,25.13,45.36,61.19,48,104.29V453.67H15.94V144.35C19.82,101,37.29,64.83,66.47,39.79,92.54,17.42,126.66,5.11,162.56,5.11h0m0-4C91.73,1.11,20.42,48.49,11.94,144.17v313.5h298.5V144.17C304.68,49.11,233.86,1.1,162.56,1.11Z" transform="translate(-2.61 -1.11)"/></g><g id="Calque_3" data-name="Calque 3"><path class="cls-3" d="M42.69,439.92V143.29C47.12,107.17,61.41,77.68,84,58c19.88-17.33,46.18-26.87,74.06-26.87,56.06,0,117.59,39.31,121.21,112.16V439.92Z" transform="translate(-2.61 -1.11)"/><path class="cls-4" d="M158.09,29.11v4c29.1,0,58.25,10.6,79.95,29.09,16.76,14.27,37.16,39.92,39.24,81.07V437.92H44.69V143.41c4.39-35.56,18.44-64.58,40.63-83.92,19.51-17,45.35-26.38,72.75-26.38l0-4m0,0c-54.15,0-107.72,34.94-117.38,114.06V441.92H281.28V143.17c-3.58-72-63.75-114.07-123.21-114.06Z" transform="translate(-2.61 -1.11)"/></g><g id="Calque_4" data-name="Calque 4"><path class="cls-5" d="M53.06,138c3.42-28.39,16.41-52.44,37.7-69.68,19.92-16.14,45.57-25,72.23-25,25.63,0,49.86,8.45,68.21,23.78,20.06,16.77,32.67,41.25,36.59,70.93Z" transform="translate(-2.61 -1.11)"/><path class="cls-1" d="M163,45.79c25,0,48.7,8.24,66.6,23.2,18.93,15.82,31.08,38.73,35.32,66.51h-209c3.83-26.51,16.35-49,36.41-65.24C111.81,54.48,136.9,45.79,163,45.79m0-5c-52.85,0-106.39,35-112.71,99.71H270.61C263,72.52,213.3,40.79,163,40.79Z" transform="translate(-2.61 -1.11)"/></g><g id="Calque_5" data-name="Calque 5"><rect class="cls-6" x="47.67" y="149.73" width="220.33" height="84.68"/><rect class="cls-7" x="53" y="155.06" width="68" height="75"/><rect class="cls-7" x="195.33" y="155.06" width="68" height="75"/><rect class="cls-7" x="124.67" y="155.06" width="68" height="75"/><rect class="cls-5" x="129.5" y="159.9" width="57.67" height="27.33"/><path class="cls-1" d="M187.28,163.5v22.34H134.61V163.5h52.67m5-5H129.61v32.34h62.67V158.5Z" transform="translate(-2.61 -1.11)"/></g><g id="Calque_6" data-name="Calque 6"><path class="cls-6" d="M83.94,235.51V356.17c18,101.5,146,79.67,154,0V235.51Z" transform="translate(-2.61 -1.11)"/><path class="cls-1" d="M159.09,411.69a59,59,0,0,1-37.46-13c-12.08-9.74-20.72-24.24-25.69-43.09V237.51H225.61V355.73c-1.68,15.45-9.73,29.73-22.68,40.22a70.92,70.92,0,0,1-43.84,15.74Z" transform="translate(-2.61 -1.11)"/><path class="cls-2" d="M223.61,239.51V355.62c-1.65,14.88-9.44,28.65-21.94,38.78a68.91,68.91,0,0,1-42.58,15.29,57.06,57.06,0,0,1-36.2-12.57c-11.69-9.43-20.08-23.49-25-41.8V239.51H223.61m4-4H93.94V355.84c10.77,41.23,38,57.85,65.15,57.85,32.52,0,64.89-23.87,68.52-57.85V235.51Z" transform="translate(-2.61 -1.11)"/></g><g id="Calque_7" data-name="Calque 7"><rect class="cls-6" x="278.67" y="178.4" width="37.33" height="43"/></g><g id="Calque_7_-_copie" data-name="Calque 7 - copie"><rect class="cls-6" x="0.75" y="178.4" width="37.33" height="43"/></g><g id="Calque_10" data-name="Calque 10"><rect class="cls-6" y="392.06" width="38.08" height="64.5"/></g><g id="Calque_10_-_copie" data-name="Calque 10 - copie"><rect class="cls-6" x="278.67" y="392.06" width="38.08" height="64.5"/></g></svg>