<?xml version="1.0" encoding="utf-8"?>
<!-- Generator: Adobe Illustrator 22.0.0, SVG Export Plug-In . SVG Version: 6.00 Build 0)  -->
<svg version="1.1"
	 id="svg2" xmlns:cc="http://creativecommons.org/ns#" xmlns:dc="http://purl.org/dc/elements/1.1/" xmlns:rdf="http://www.w3.org/1999/02/22-rdf-syntax-ns#" xmlns:svg="http://www.w3.org/2000/svg"
	 xmlns="http://www.w3.org/2000/svg" xmlns:xlink="http://www.w3.org/1999/xlink" x="0px" y="0px" viewBox="0 0 419.5 335.5"
	 style="enable-background:new 0 0 419.5 335.5;" xml:space="preserve">
<style type="text/css">
	.st0{clip-path:url(#SVGID_2_);}
</style>
<g id="g10" transform="matrix(1.3333333,0,0,-1.3333333,0,453.54667)">
	<g id="g12">
		<g>
			<defs>
				<rect id="SVGID_1_" x="-68.2" y="-22.2" width="453.5" height="453.5"/>
			</defs>
			<clipPath id="SVGID_2_">
				<use xlink:href="#SVGID_1_"  style="overflow:visible;"/>
			</clipPath>
			<g id="g14" class="st0">
				<g id="g20" transform="translate(127.9951,79.6094)">
					<path id="path22" d="M-11.5,34.5c0.3,0.3,0.5,0.5,0.7,0.8c0.2,0.3,0.3,0.5,0.4,0.7c0.1,0.2,0.1,0.3,0.1,0.3l0,0.1l-0.7,0.3
						l-0.1-0.1c-0.2-0.3-0.3-0.6-0.5-0.9c-0.2-0.2-0.3-0.5-0.6-0.7c-0.2-0.2-0.5-0.4-0.8-0.5c-0.6-0.3-1.4-0.2-2.1,0.1
						c-0.7,0.3-1.2,0.8-1.4,1.5c-0.1,0.3-0.1,0.6-0.1,0.9c0,0.3,0.1,0.6,0.1,0.8c0.1,0.3,0.2,0.5,0.4,0.9l3.9,8.5
						c0.2,0.5,0.5,0.9,0.8,1.2c0.3,0.3,0.6,0.5,0.9,0.6c0.3,0.1,0.7,0.2,1,0.1c0.3,0,0.7-0.1,1-0.2c0.3-0.1,0.6-0.3,0.8-0.6
						c0.2-0.3,0.4-0.6,0.6-0.9c0.1-0.4,0.2-0.8,0.2-1.2c0-0.5-0.2-0.9-0.4-1.5l-0.1-0.1l0.7-0.3l0.1,0.1c0.3,0.6,0.4,1.2,0.5,1.8
						c0,0.6,0,1.1-0.3,1.6c-0.4,0.8-1,1.4-1.7,1.7c-0.4,0.2-0.8,0.3-1.2,0.3c-0.4,0-0.8,0-1.2-0.1c-1-0.3-1.7-1.1-2.2-2.2l-3.9-8.4
						c0,0-0.1-0.2-0.2-0.3c-0.1-0.2-0.2-0.4-0.3-0.7c-0.1-0.3-0.1-0.6-0.2-1c0-0.4,0-0.8,0.2-1.1c0.2-0.8,0.9-1.5,1.8-1.9
						c0.6-0.3,1.1-0.4,1.6-0.4c0.4,0,0.7,0.1,1.1,0.2C-12.1,34-11.8,34.2-11.5,34.5"/>
				</g>
				<g id="g24" transform="translate(137.79,76.1855)">
					<path id="path26" d="M-11.5,34.5c0.2,0.3,0.4,0.5,0.6,0.8c0.1,0.2,0.3,0.5,0.3,0.7l4.3,12.6L-7,48.8l-4.2-12.3
						c0-0.1-0.1-0.3-0.2-0.4c-0.1-0.1-0.1-0.3-0.2-0.4c-0.1-0.2-0.3-0.4-0.5-0.7c-0.2-0.2-0.4-0.4-0.7-0.6c-0.6-0.3-1.3-0.3-2.1-0.1
						c-0.8,0.3-1.3,0.7-1.6,1.3c-0.1,0.3-0.2,0.6-0.2,0.9c0,0.3,0,0.6,0.1,0.9c0,0.1,0.1,0.3,0.1,0.4l4.3,12.7l-0.7,0.2l-4.2-12.5
						c-0.1-0.2-0.1-0.5-0.2-0.8c-0.1-0.3-0.1-0.6-0.1-1c0-0.4,0.1-0.7,0.3-1.1c0.4-0.8,1-1.4,2-1.7c0.5-0.2,0.9-0.2,1.3-0.2
						c0.5,0,1,0.1,1.4,0.3C-12,34-11.7,34.2-11.5,34.5"/>
				</g>
				<g id="g28" transform="translate(141.0254,73.4346)">
					<path id="path30" d="M-11.5,34.5l0.7-0.2l4.3,16.1l-0.7,0.2L-11.5,34.5z"/>
				</g>
				<g id="g32" transform="translate(153.873,86.8418)">
					<path id="path34" d="M-11.5,34.5c-0.4,0.8-1.2,1.2-2.3,1.5c-1.1,0.2-2,0-2.7-0.5c-0.3-0.2-0.6-0.5-0.7-0.7
						c-0.2-0.3-0.3-0.5-0.4-0.8c-0.1-0.3-0.2-0.5-0.2-0.7l-0.1-0.3c-0.2-1,0-2,0.5-2.9c0.2-0.4,0.5-0.8,0.8-1.1
						c0.3-0.3,0.6-0.7,1-1.1c0.4-0.4,0.7-0.8,1-1.1c0.3-0.4,0.6-0.8,0.9-1.2c0.2-0.4,0.4-0.9,0.5-1.4c0.1-0.5,0.1-1.1-0.1-1.8
						c-0.1-0.6-0.3-1-0.5-1.4c-0.3-0.3-0.5-0.6-0.9-0.8c-0.3-0.2-0.7-0.3-1.1-0.3c-0.4,0-0.8,0-1.1,0.1c-0.3,0.1-0.6,0.2-0.9,0.3
						c-0.3,0.1-0.6,0.4-0.8,0.6c-0.2,0.3-0.4,0.7-0.5,1.1c-0.1,0.5-0.1,1,0,1.7l0,0.1l-0.7,0.1l0-0.1c-0.1-0.6-0.2-1.3-0.1-1.9
						c0.1-0.6,0.3-1.1,0.6-1.5c0.3-0.4,0.7-0.7,1.2-0.9c0.4-0.2,0.8-0.3,1.2-0.4c0.3-0.1,0.6-0.1,0.9-0.1c0.6,0,1.2,0.1,1.7,0.4
						c1,0.5,1.6,1.4,1.8,2.6c0.3,1.3,0.1,2.5-0.5,3.6c-0.3,0.5-0.6,0.9-0.9,1.4c-0.4,0.4-0.7,0.8-1.1,1.2c-0.3,0.3-0.6,0.7-0.9,1
						c-0.3,0.3-0.5,0.7-0.7,1c-0.2,0.4-0.3,0.7-0.4,1.1c-0.1,0.4-0.1,0.8,0,1.3c0.1,0.3,0.1,0.6,0.2,0.8c0.1,0.2,0.2,0.4,0.4,0.7
						c0.1,0.2,0.3,0.4,0.6,0.6c0.5,0.4,1.3,0.5,2.1,0.3c0.4-0.1,0.8-0.2,1.1-0.4c0.3-0.2,0.5-0.4,0.7-0.7c0.1-0.2,0.2-0.5,0.2-0.8
						c0-0.3,0-0.6,0-0.8c0-0.3-0.1-0.6-0.2-0.9l0-0.1l0.7-0.1l0,0.1c0,0,0,0.1,0.1,0.3c0,0.2,0.1,0.5,0.1,0.8c0,0.3,0,0.6,0,1
						C-11.2,33.8-11.3,34.2-11.5,34.5"/>
				</g>
				<g id="g36" transform="translate(157.0483,87.1777)">
					<path id="path38" d="M-11.5,34.5L-13.8,18l0.7-0.1l2.3,16.5L-11.5,34.5z"/>
				</g>
				<g id="g40" transform="translate(165.8755,71.6582)">
					<path id="path42" d="M-11.5,34.5c0,0,0,0.1,0,0.1l-5.2,14.8l0,0.1l-0.6,0l-1.2-16.6l0.7-0.1l1,14.7l5.3-15.1l0.6,0L-9.7,49
						l-0.7,0.1L-11.5,34.5z"/>
				</g>
				<g id="g44" transform="translate(170.3447,70.1504)">
					<path id="path46" d="M-11.5,34.5l-0.1,6.4l4.5,0l0,0.7l-4.5,0l-0.1,8.3l5.8,0.1l0,0.7l-6.5-0.1l0.2-16.7l6.6,0.1l0,0.7
						L-11.5,34.5z"/>
				</g>
				<g id="g48" transform="translate(194.3066,89.9014)">
					<path id="path50" d="M-11.5,34.5l-1.6-8.9l-6.2,6.5l-0.1,0v0l-0.4-0.1l4.7-15.9l0-0.1l0.7,0.2l-4.2,14.2l5.7-6l0.5,0.1l1.4,8.1
						l4.2-14.1l0-0.1l0.7,0.2l-4.8,16L-11.5,34.5z"/>
				</g>
				<g id="g52" transform="translate(204.5518,82.374)">
					<path id="path54" d="M-11.5,34.5l-3.1-1.4l-2,8.9L-11.5,34.5z M-17.2,44l-0.3-0.1l0.1-0.1l0,0l0,0l0,0v0l0,0l0,0l-0.1,0.1
						l0-0.1l-0.1,0.1l-0.2-0.1l3.7-16.6l0.7,0.3l-1,5l3.4,1.5l2.9-4.1l0.7,0.3L-17.2,44L-17.2,44z"/>
				</g>
				<g id="g56" transform="translate(211.5313,79.54)">
					<path id="path58" d="M-11.5,34.5l-7.8,14.7l-0.6-0.3l7.8-14.7L-11.5,34.5z"/>
				</g>
				<g id="g60" transform="translate(215.9258,90.3477)">
					<path id="path62" d="M-11.5,34.5c-0.5,0.2-1.1,0.3-1.6,0.4c-0.5,0.1-1.1,0.1-1.6,0.1c-0.5,0-0.9,0.1-1.4,0.1
						c-0.4,0-0.9,0.1-1.2,0.3c-0.4,0.1-0.8,0.3-1.1,0.5c-0.3,0.2-0.6,0.5-0.9,1c-0.2,0.3-0.3,0.5-0.4,0.7c-0.1,0.2-0.1,0.5-0.2,0.7
						c-0.1,0.3-0.1,0.6,0,0.8c0.1,0.7,0.6,1.2,1.3,1.7c0.4,0.2,0.7,0.4,1.1,0.4c0.3,0.1,0.7,0,1,0c0.3-0.1,0.5-0.2,0.7-0.4
						c0.2-0.2,0.4-0.4,0.6-0.6c0.2-0.2,0.3-0.5,0.5-0.8l0.1-0.1l0.5,0.3l0.1,0.1l-0.2,0.4c-0.1,0.2-0.2,0.4-0.4,0.6
						c-0.2,0.2-0.4,0.5-0.7,0.7c-0.3,0.2-0.6,0.4-0.9,0.5c-0.8,0.3-1.7,0.1-2.7-0.5c-0.9-0.6-1.5-1.3-1.6-2.2
						c-0.1-0.4-0.1-0.7,0-1.1c0.1-0.3,0.1-0.6,0.2-0.9c0.1-0.3,0.2-0.5,0.3-0.6l0.2-0.3c0.5-0.9,1.3-1.5,2.3-1.8
						c0.4-0.1,0.9-0.2,1.4-0.3c0.5,0,0.9-0.1,1.4-0.1c0.5,0,1-0.1,1.5-0.1c0.5,0,1-0.1,1.5-0.3c0.5-0.2,0.9-0.4,1.3-0.7
						c0.4-0.3,0.8-0.8,1.2-1.3c0.3-0.5,0.5-0.9,0.5-1.4c0.1-0.4,0-0.8-0.1-1.2c-0.1-0.4-0.3-0.7-0.6-1c-0.3-0.3-0.5-0.5-0.9-0.7
						c-0.3-0.2-0.6-0.3-0.9-0.4c-0.3-0.1-0.7-0.2-1.1-0.1c-0.4,0-0.8,0.2-1.2,0.5c-0.4,0.3-0.8,0.7-1.2,1.3l-0.1,0.1l-0.6-0.4
						l0.1-0.1c0.3-0.5,0.8-1,1.2-1.4c0.5-0.4,1-0.6,1.5-0.7c0.2,0,0.3,0,0.5,0h0c0.3,0,0.7,0.1,1,0.2c0.4,0.2,0.8,0.3,1.1,0.5
						c0.9,0.5,1.4,1.2,1.7,2.1c0.3,1,0.2,2.1-0.5,3.2C-9.3,33.3-10.3,34.1-11.5,34.5"/>
				</g>
				<g id="g64" transform="translate(226.4609,90.8496)">
					<path id="path66" d="M-11.5,34.5c0-0.2-0.1-0.3-0.2-0.5c-0.1-0.2-0.2-0.4-0.3-0.6c-0.1-0.2-0.3-0.4-0.5-0.5
						c-0.2-0.2-0.3-0.3-0.5-0.4c-0.3-0.3-0.7-0.5-1.2-0.7c-0.4-0.2-0.8-0.2-1.1-0.2c-0.3,0.1-0.6,0.2-0.8,0.3
						c-0.3,0.2-0.5,0.3-0.7,0.5c-0.2,0.2-0.4,0.4-0.6,0.7l-5.6,7.4c-0.4,0.5-0.6,1-0.7,1.4c-0.1,0.4-0.1,0.8,0,1.2
						c0.1,0.4,0.3,0.7,0.5,1c0.2,0.3,0.5,0.5,0.8,0.7c0.1,0.1,0.3,0.2,0.5,0.3c0.2,0.1,0.4,0.2,0.6,0.3c0.2,0.1,0.5,0.1,0.7,0.2
						c0.1,0,0.3,0,0.4,0c0.1,0,0.2,0,0.2,0c0.3-0.1,0.6-0.2,1-0.4c0.3-0.2,0.6-0.5,1-0.9l5.7-7.5c0.2-0.3,0.4-0.5,0.5-0.7
						c0.1-0.2,0.2-0.5,0.3-0.8C-11.5,35.1-11.5,34.8-11.5,34.5 M-11.2,36.4c-0.1,0.3-0.2,0.5-0.4,0.6l-5.9,7.8
						c-0.8,1-1.7,1.6-2.7,1.6c-0.2,0-0.4,0-0.7-0.1c-0.2-0.1-0.5-0.1-0.7-0.2c-0.2-0.1-0.5-0.2-0.7-0.3c-0.2-0.1-0.4-0.3-0.6-0.4
						c-0.2-0.1-0.3-0.3-0.5-0.5c-0.2-0.2-0.3-0.4-0.5-0.6c-0.2-0.2-0.3-0.4-0.4-0.6c-0.1-0.2-0.2-0.4-0.2-0.7
						c-0.1-0.5-0.1-1,0.1-1.5c0.2-0.5,0.4-1,0.8-1.5l5.8-7.7c0.1-0.2,0.3-0.4,0.5-0.6c0.2-0.2,0.5-0.4,0.8-0.6
						c0.3-0.2,0.7-0.3,1.1-0.4c0.1,0,0.2,0,0.3,0c0.3,0,0.7,0.1,1.1,0.2c0.5,0.2,1,0.5,1.4,0.8c0.4,0.3,0.8,0.7,1.2,1.2
						c0.4,0.5,0.6,0.9,0.6,1.4c0,0.4,0,0.8-0.1,1.1C-10.9,35.8-11,36.1-11.2,36.4"/>
				</g>
				<g id="g68" transform="translate(224.1426,109.2979)">
					<path id="path70" d="M-11.5,34.5l9.8-10.8c0,0-0.1,0-0.1,0.1l-14.4,6.5l-0.4-0.4l11.2-12.3l0.5,0.5l-9.9,10.9l14.5-6.6l0.1,0
						l0.5,0.4L-11,35L-11.5,34.5z"/>
				</g>
				<g id="g72" transform="translate(94.9688,241.5977)">
					<path id="path74" d="M-11.5,34.5c-1.7,0-3.2-1.4-3.2-3.2s1.4-3.2,3.2-3.2s3.2,1.4,3.2,3.2S-9.8,34.5-11.5,34.5"/>
				</g>
				<g id="g76" transform="translate(223.2188,254.4204)">
					<path id="path78" d="M-11.5,34.5c1.7,0,3.2,1.4,3.2,3.2c0,1.7-1.4,3.2-3.2,3.2c-1.7,0-3.2-1.4-3.2-3.2
						C-14.7,35.9-13.2,34.5-11.5,34.5"/>
				</g>
				<g id="g80" transform="translate(232.1357,248.7539)">
					<path id="path82" d="M-11.5,34.5c1.7,0,3.2,1.4,3.2,3.2c0,1.7-1.4,3.2-3.2,3.2c-1.7,0-3.2-1.4-3.2-3.2
						C-14.7,35.9-13.2,34.5-11.5,34.5"/>
				</g>
				<g id="g84" transform="translate(240.4688,241.9204)">
					<path id="path86" d="M-11.5,34.5c1.7,0,3.2,1.4,3.2,3.2c0,1.7-1.4,3.2-3.2,3.2c-1.7,0-3.2-1.4-3.2-3.2
						C-14.7,35.9-13.2,34.5-11.5,34.5"/>
				</g>
				<g id="g88" transform="translate(247.8857,234.3369)">
					<path id="path90" d="M-11.5,34.5c1.7,0,3.2,1.4,3.2,3.2c0,1.7-1.4,3.2-3.2,3.2c-1.7,0-3.2-1.4-3.2-3.2
						C-14.7,35.9-13.2,34.5-11.5,34.5"/>
				</g>
				<g id="g92" transform="translate(254.9688,226.5039)">
					<path id="path94" d="M-11.5,34.5c1.7,0,3.2,1.4,3.2,3.2c0,1.7-1.4,3.2-3.2,3.2c-1.7,0-3.2-1.4-3.2-3.2
						C-14.7,35.9-13.2,34.5-11.5,34.5"/>
				</g>
				<g id="g96" transform="translate(84.5625,230.0664)">
					<path id="path98" d="M-11.5,34.5c0-1.7,1.4-3.2,3.2-3.2s3.2,1.4,3.2,3.2c0,1.7-1.4,3.2-3.2,3.2S-11.5,36.2-11.5,34.5"/>
				</g>
				<g id="g100" transform="translate(78.1875,221.0664)">
					<path id="path102" d="M-11.5,34.5c0-1.7,1.4-3.2,3.2-3.2s3.2,1.4,3.2,3.2c0,1.7-1.4,3.2-3.2,3.2S-11.5,36.2-11.5,34.5"/>
				</g>
				<g id="g104" transform="translate(79.1665,118.5664)">
					<path id="path106" d="M-11.5,34.5c0,1.7-1.4,3.2-3.2,3.2s-3.2-1.4-3.2-3.2s1.4-3.2,3.2-3.2S-11.5,32.8-11.5,34.5"/>
				</g>
				<g id="g108" transform="translate(81.1772,112.3057)">
					<path id="path110" d="M-11.5,34.5c-1.7,0-3.2-1.4-3.2-3.2c0-1.7,1.4-3.2,3.2-3.2s3.2,1.4,3.2,3.2C-8.3,33.1-9.8,34.5-11.5,34.5
						"/>
				</g>
				<g id="g112" transform="translate(94.1772,95.5557)">
					<path id="path114" d="M-11.5,34.5c-1.7,0-3.2-1.4-3.2-3.2s1.4-3.2,3.2-3.2s3.2,1.4,3.2,3.2S-9.8,34.5-11.5,34.5"/>
				</g>
				<g id="g116" transform="translate(102.0103,88.0557)">
					<path id="path118" d="M-11.5,34.5c-1.7,0-3.2-1.4-3.2-3.2c0-1.7,1.4-3.2,3.2-3.2s3.2,1.4,3.2,3.2C-8.3,33.1-9.8,34.5-11.5,34.5
						"/>
				</g>
				<g id="g120" transform="translate(119.5938,75.4727)">
					<path id="path122" d="M-11.5,34.5c-1.7,0-3.2-1.4-3.2-3.2c0-1.7,1.4-3.2,3.2-3.2s3.2,1.4,3.2,3.2C-8.3,33.1-9.8,34.5-11.5,34.5
						"/>
				</g>
				<g id="g124" transform="translate(129.2603,70.4727)">
					<path id="path126" d="M-11.5,34.5c-1.7,0-3.2-1.4-3.2-3.2c0-1.7,1.4-3.2,3.2-3.2s3.2,1.4,3.2,3.2C-8.3,33.1-9.8,34.5-11.5,34.5
						"/>
				</g>
				<g id="g128" transform="translate(139.5103,66.9727)">
					<path id="path130" d="M-11.5,34.5c-1.7,0-3.2-1.4-3.2-3.2c0-1.7,1.4-3.2,3.2-3.2s3.2,1.4,3.2,3.2C-8.3,33.1-9.8,34.5-11.5,34.5
						"/>
				</g>
				<g id="g132" transform="translate(149.5103,64.3896)">
					<path id="path134" d="M-11.5,34.5c-1.7,0-3.2-1.4-3.2-3.2s1.4-3.2,3.2-3.2s3.2,1.4,3.2,3.2C-8.3,33.1-9.8,34.5-11.5,34.5"/>
				</g>
				<g id="g136" transform="translate(160.5938,62.3057)">
					<path id="path138" d="M-11.5,34.5c-1.7,0-3.2-1.4-3.2-3.2c0-1.7,1.4-3.2,3.2-3.2s3.2,1.4,3.2,3.2C-8.3,33.1-9.8,34.5-11.5,34.5
						"/>
				</g>
				<g id="g140" transform="translate(171.2607,62.0977)">
					<path id="path142" d="M-11.5,34.5c-1.7,0-3.2-1.4-3.2-3.2s1.4-3.2,3.2-3.2c1.7,0,3.2,1.4,3.2,3.2C-8.3,33.1-9.8,34.5-11.5,34.5
						"/>
				</g>
				<g id="g144" transform="translate(181.9268,62.3057)">
					<path id="path146" d="M-11.5,34.5c-1.7,0-3.2-1.4-3.2-3.2c0-1.7,1.4-3.2,3.2-3.2c1.7,0,3.2,1.4,3.2,3.2
						C-8.3,33.1-9.8,34.5-11.5,34.5"/>
				</g>
				<g id="g148" transform="translate(192.8857,63.9658)">
					<path id="path150" d="M-11.5,34.5c-1.7,0-3.2-1.4-3.2-3.2c0-1.7,1.4-3.2,3.2-3.2c1.7,0,3.2,1.4,3.2,3.2
						C-8.3,33.1-9.8,34.5-11.5,34.5"/>
				</g>
				<g id="g152" transform="translate(202.8857,66.9658)">
					<path id="path154" d="M-11.5,34.5c-1.7,0-3.2-1.4-3.2-3.2c0-1.7,1.4-3.2,3.2-3.2c1.7,0,3.2,1.4,3.2,3.2
						C-8.3,33.1-9.8,34.5-11.5,34.5"/>
				</g>
				<g id="g156" transform="translate(212.8018,70.3828)">
					<path id="path158" d="M-11.5,34.5c-1.7,0-3.2-1.4-3.2-3.2c0-1.7,1.4-3.2,3.2-3.2c1.7,0,3.2,1.4,3.2,3.2
						C-8.3,33.1-9.8,34.5-11.5,34.5"/>
				</g>
				<g id="g160" transform="translate(222.8018,75.4658)">
					<path id="path162" d="M-11.5,34.5c-1.7,0-3.2-1.4-3.2-3.2s1.4-3.2,3.2-3.2c1.7,0,3.2,1.4,3.2,3.2S-9.8,34.5-11.5,34.5"/>
				</g>
				<g id="g164" transform="translate(231.5518,81.0488)">
					<path id="path166" d="M-11.5,34.5c-1.7,0-3.2-1.4-3.2-3.2s1.4-3.2,3.2-3.2c1.7,0,3.2,1.4,3.2,3.2S-9.8,34.5-11.5,34.5"/>
				</g>
				<g id="g168" transform="translate(240.1357,87.5488)">
					<path id="path170" d="M-11.5,34.5c-1.7,0-3.2-1.4-3.2-3.2c0-1.7,1.4-3.2,3.2-3.2c1.7,0,3.2,1.4,3.2,3.2
						C-8.3,33.1-9.8,34.5-11.5,34.5"/>
				</g>
				<g id="g172" transform="translate(247.9688,95.0488)">
					<path id="path174" d="M-11.5,34.5c-1.7,0-3.2-1.4-3.2-3.2c0-1.7,1.4-3.2,3.2-3.2c1.7,0,3.2,1.4,3.2,3.2
						C-8.3,33.1-9.8,34.5-11.5,34.5"/>
				</g>
				<g id="g176" transform="translate(110.5103,81.2227)">
					<path id="path178" d="M-11.5,34.5c-1.7,0-3.2-1.4-3.2-3.2s1.4-3.2,3.2-3.2s3.2,1.4,3.2,3.2S-9.8,34.5-11.5,34.5"/>
				</g>
				<g id="g180" transform="translate(87.4272,103.5557)">
					<path id="path182" d="M-11.5,34.5c-1.7,0-3.2-1.4-3.2-3.2c0-1.7,1.4-3.2,3.2-3.2s3.2,1.4,3.2,3.2C-8.3,33.1-9.8,34.5-11.5,34.5
						"/>
				</g>
				<g id="g184" transform="translate(73.7344,135.9707)">
					<path id="path186" d="M-11.5,34.5c0,0.1-4.2,7.9-3.9,23.1C-15,73.4-9.1,94.3-7,97.2c0.9,1.3,2,2.7,2.9,2.7
						c0.6,0,1.1-0.8,1.5-2.4c0.5-1.8,2.1-16.6,3.8-32.3C3,48.9,5,30.4,6,24C7.7,13.6,15-1.9,28.1-1.9c4,0,8.4,1.5,12.9,4.4l0.1,0
						l-0.2,1l-0.1,0c0,0-2.4-0.5-4.5-0.5c-0.7,0-1.3,0.1-1.8,0.2c-1.7,0.4-10,2.8-12.3,15.5C19.8,31.4,11.9,78.8,11,89
						c-0.8,9.4-6,19.6-12.9,19.6c-4,0-8.1-3.4-12.1-10c-5.6-11-10.8-21.8-11.9-23.9c-0.4,3.9-3.8,30.2-13.4,30.2
						c-9.7-0.1-23-24.9-31.1-49.3c-2.2-7.2-2.5-11.1-0.8-13.4c1.2-1.6,3.3-2.3,6.6-2.3c6.7,0,11.7,3.8,11.7,3.9l0.3,0.3l-0.5-0.1
						c-0.2,0-0.6,0.1-1,0.5c-0.8,0.9-1.7,3.4-1.1,9.7c1.1,10.7,2.6,21,10.5,39c0.3,0.7,0.6,1.2,0.9,1.8c1.1,2.2,1.5,3.2,2.4,3.2
						c0.1,0,0.1,0,0.1,0c0,0,4.2-3.6,6.9-32.3c0.5-5.3,0.8-9.7,1.1-13.5c1.3-16.6,1.6-20,9-21.5c0,0,0.2,0,0.6,0
						c1.1,0,3.5,0.2,7.1,1.7l5.1,2.1L-11.5,34.5z"/>
				</g>
				<g id="g188" transform="translate(212.248,182.1343)">
					<path id="path190" d="M-11.5,34.5c0.3,3.2,0.6,6.1,0.8,8.8c0.3,2.7,0.3,4.5,0.2,5.4c-0.4,2.3-1.1,4.3-2.1,5.8
						c-1,1.5-2.5,2.1-4.5,1.8c-1.6-0.2-3.4-1-5.2-2.3c-1.8-1.2-3.6-2.9-5.3-4.8c-1.7-2-3.3-4.2-4.8-6.8c-1.4-2.3-2.6-4.8-3.7-7.3
						c0.2,2,0.5,4.1,0.9,6.2c0.5,2.4,0.5,4.9,0.1,7.3c-0.3,2.2-1.1,4.1-2.3,5.6c-1.2,1.5-2.7,2.1-4.4,1.9c-1.4-0.2-2.9-0.9-4.3-2
						c-1.4-1.1-2.9-2.5-4.3-4.2c-1.4-1.7-2.8-3.7-4.1-5.8c-1.1-2-2.2-4-3.1-6.2c0,1,0,1.9,0,2.6c0,0.9,0,1.8-0.2,2.7
						c-0.3,2.1-0.9,3.8-1.8,4.9c-0.9,1.1-2,1.9-3.2,2.4c-1.1,0.5-2.3,0.7-3.6,0.7l-0.3,0c-1.4,0-2.8-0.2-4.2-0.4
						c-0.9-0.1-1.6-0.3-2.1-0.4c-0.5-0.1-0.9-0.3-1-0.4c-0.2-0.1-0.4-0.3-0.4-0.4c0,0,0-0.2,0.1-0.1c0-0.3,0.2-0.4,0.6-0.4
						c0.2,0,0.5,0,0.9-0.1c0.3-0.1,0.7-0.4,1-0.7c0.3-0.4,0.5-1.1,0.7-2c0.4-2.6,0.5-5.6,0.3-8.7c-0.2-3.1-0.5-6.4-0.9-9.7
						c-0.4-3.3-0.7-6.5-0.9-9.7c-0.2-2.7-0.2-5.3,0.2-7.6c-3.7-5.4-6.3-6.5-8.9-6.5c-0.2,0-0.3,0.1-0.4,0.2
						c-0.9,1.2,0.8,7.6,2.3,13.2c1.1,3.9,2.1,7.6,2.3,10c-2.7,4.6-6.5,5.5-9.3,5.5c-1.8,0-3-0.4-3-0.4l-0.2-0.1l0.2-0.1
						c1-0.7,0.5-10.4-0.5-19.1C-95.5,5.7-99.7,1.7-102.3,2c-5.8,0.5-5.4,8.7-5.2,11.4l0,0.5c0,0.2,2.8,21.3,23.1,21.3
						c1.5,0,3.1-0.1,4.8-0.4l0.1,0l0,0.1c0,0.1,0.9,5.4-2.2,9c-1.8,2.2-4.7,3.3-8.5,3.3l-0.4,0c-12.6-0.2-26.7-18.1-26.5-33.5
						c0.2-13.9,7.3-18.9,12-18.9c0.1,0,0.2,0,0.3,0c4.6,0.3,9.1,3.8,13.6,10.7c0.3-3.6,2.3-7.4,6.8-7.4l0.1,0c6.5,0,11,6.7,11.9,8.1
						c0.1,0.2,0.3,0.4,0.5,0.5c0.5-1.1,1.1-2.1,1.9-3c1.5-1.7,4.1-2.2,7.7-1.7c0.9,0.1,2.1,0.5,3.5,1c1.9,0.8,2.2,1.1,2.1,1.3l0,0.1
						l-0.1,0c-1.1,0.5-2,1.3-2.8,2.2c-0.8,1-1.3,2.4-1.5,4.1c-0.2,1.3,0,3.8,0.7,7.3c0.6,3.5,1.6,7.2,2.8,11
						c1.2,3.8,2.7,7.2,4.4,10.3c1.7,3,3.6,4.7,5.6,5c0.3,0,0.5-0.5,0.7-1.5c0.4-2.7,0.5-5.5,0.2-8.1c-0.3-2.7-0.6-5.4-0.9-8.1
						c-0.3-2.8-0.6-5.6-0.9-8.5c-0.2-2.9-0.1-6,0.4-9.1c0.5-3.4,1.8-5.4,3.8-6.1c2-0.7,4.2-0.8,6.6-0.4c2.5,0.4,4.4,1.1,5.7,2.1
						c1.7,1.3,1.9,1.7,1.9,1.9l0,0.1l-0.1,0c-2.9,0.8-4.8,3.4-5.5,7.9c-0.4,2.4-0.5,5.5-0.5,9.2c0.2,2.2,0.7,4.4,1.6,6.7
						c0.9,2.3,1.9,4.4,3.1,6.4c1.2,2,2.4,3.7,3.8,5c1.3,1.3,2.6,2.1,3.7,2.2c0.7,0.1,1.1-0.2,1.2-0.9c0.2-1.2,0.2-3.2,0-5.9
						c-0.2-2.7-0.4-5.7-0.7-8.9c-0.3-3.3-0.5-6.4-0.7-9.4c-0.2-3-0.2-5.4-0.1-7.1c0-0.6,0-1.1,0-1.5c0-0.4,0.1-0.9,0.1-1.4
						c0.1-0.6,0.3-1.3,0.6-2.1c0.8-1.5,1.9-2.5,3.3-3c1.4-0.5,3-0.6,4.7-0.3C-12.8,4-10.5,4.8-8.4,6c2.2,1.2,3.2,2.1,3.1,2.7
						c0,0.1-0.1,0.3-1,0.6c-0.6,0.2-1.3,0.5-2,1c-0.7,0.5-1.5,1.3-2.2,2.4c-0.7,1.1-1.3,2.8-1.6,5c-0.3,1.8-0.3,4.2-0.1,7.3
						C-12,28.1-11.8,31.3-11.5,34.5"/>
				</g>
				<g id="g192" transform="translate(260.9551,111.7549)">
					<path id="path194" d="M-11.5,34.5c-8.3-6.7-13.7-5.4-15.6-4.5c-1.8,0.8-2.8,2.1-2.8,3c0,2.7,0.9,4.7,2.5,5.9
						c3.4,2.5,9.2,0.8,9.3,0.8c0.2-0.1,0.3-0.1,0.6-0.2c1.3-0.8,2.6-1.9,4-3l1.3-1C-12,35.1-11.8,34.8-11.5,34.5 M-56,59.9
						c-26.2-11.8-43.6-18.6-51.8-20.2c-20.6-4.1-31.9-0.5-35.2,2.2c-0.8,0.7-1.3,1.4-1.3,2c0,3.3,9.2,11,44.1,17
						c6.3,1.1,12.2,1.5,17.9,1.5C-73.1,62.5-64.5,61.3-56,59.9 M2.9,59.9c-13.6-0.5-29.4,1.4-41.8,3.1l1.5,0.8
						C-19.2,73.5-7,76.2-0.9,72C3.3,69.1,3.3,63.2,2.9,59.9 M3.5,54C48,55,53.1,82.8,53.2,83.1l-0.1,0c0,10-13.7,15.4-19.8,13.8
						l0,0.1c-8.1-2.2-8.8-0.4-8.8-0.4c-0.7,1.3-1.2,2.8-1.5,4.7c-0.3,1.9-0.4,4.1-0.3,6.5c0.1,2.3,0.3,4.9,0.5,7.6
						c0.3,2.7,0.5,5.4,0.8,8.1c0.2,2.7,0.4,5.4,0.5,7.9c0.1,0.6,0.2,1.2,0.1,1.8l-0.2,1.7c-0.3,2.3-1.1,4-2.3,5.2
						c-1.2,1.2-2.7,1.6-4.4,1.4c-0.9-0.1-2.1-0.6-3.5-1.5c-1.4-0.9-2.9-2-4.3-3.4c-1.5-1.4-2.9-3.1-4.4-4.9
						c-1.3-1.8-2.5-3.6-3.6-5.6c-0.1,0.8-0.1,1.5,0,2.3c0.1,0.9,0.1,1.7,0,2.4c-0.3,2.4-1,4.2-2,5.5c-1,1.3-2.1,2.1-3.4,2.7
						c-1.3,0.5-2.7,0.7-4.2,0.6c-1.5-0.1-3-0.2-4.4-0.4c-1.2-0.2-2.3-0.4-3.1-0.8c-0.4-0.2-0.7-0.3-1-0.3l-0.1,0l0-0.1
						c0-0.2,0.2-0.4,0.7-0.4c0.3,0,0.7,0,1.1-0.1c0.4-0.1,0.7-0.4,1.2-0.8c0.4-0.4,0.7-1.2,0.8-2.1c0.3-2,0.1-5.9-0.5-11.5
						c-0.6-5.7-1.2-12.9-1.7-21.5c0-0.2,0-0.6,0-1.2c0-0.6,0-1.1,0.1-1.6c0-0.2,0.1-0.5,0.1-0.7l0-0.2c-2.6-3.2-4.7-4.5-7.4-4.5
						c-0.2,0-0.3,0.1-0.4,0.2c-0.9,1.2,0.8,7.6,2.3,13.2c1.1,3.9,2.1,7.6,2.3,10c-4.4,7.6-12.2,5.1-12.3,5.1l-0.2-0.1l0.2-0.1
						c1-0.7,0.5-9.9-0.5-18.5c-4-6.1-9.6-13.2-13.1-12.9c-5.8,0.5-5.4,8.7-5.2,11.4l0,0.5c0.1,1.6,1.8,10.7,8.8,16.5
						c4.9,4.1,11.3,5.6,19,4.5l0.1,0l0,0.1c0,0.1,0.9,5.5-2.2,9.1c-1.9,2.2-4.9,3.3-8.8,3.2c-12.6-0.2-26.7-18.1-26.5-33.5
						c0.2-9.1,3.2-13.8,5.7-16.1c2.4-2.2,5-2.9,6.7-2.8c5,0.3,9.7,4.3,14.5,12.2c0.2-3.7,2.1-7.9,6.9-8c0,0,0.1,0,0.1,0
						c5.5,0,9.6,4.8,11.2,7c0.4-0.6,0.8-1.1,1.2-1.6c0.8-0.8,1.9-1.3,3.2-1.7c1.3-0.4,2.9-0.5,4.8-0.2c0.9,0.1,2.1,0.5,3.5,1
						c1.9,0.7,2.1,1,2.1,1.3l0,0.1l-0.1,0c-1.6,0.7-2.8,1.5-3.6,2.5c-0.8,1-1.2,2.1-1.4,3.2c-0.3,2.3,0,5.2,0.8,8.6
						c0.9,3.4,2.1,6.7,3.6,9.9c1.5,3.2,3.2,6,5.1,8.4c1.9,2.3,3.7,3.7,5.4,3.9c0.4,0.1,0.7-0.4,0.9-1.5c0.3-2.6,0.2-5.1-0.2-7.6
						c-0.4-2.5-0.8-5-1.3-7.4c-0.4-2.4-0.8-5-1.1-7.6c-0.3-2.6-0.3-5.3,0.1-8.1c0.4-3.1,1.6-5,3.5-5.9c1.9-0.8,3.9-1.1,6.1-0.8
						c2.3,0.3,4.3,0.9,6,1.8c0.6,0.3,1.4,0.6,2,0.8c0.7,0.2,1.2,0.4,1.3,0.5c1.5,0.6,3.4,1.2,4.8,0c2.2-1.7,2.7-7,1.5-15.8
						C33.4,67.1,23.6,61.1,4.8,60c0.4,4.2-0.1,9.9-4.7,13.3c-6.7,4.9-19.6,3.1-38.3-5.3c-1.1-0.5-2.9-1.3-5.1-2.3l-3.3-1.5
						c-33.6,4.6-53.9,1.4-54.1,1.4c-2.3-0.2-56.4-5-55.4-23.3c0.2-2.8,1.4-5.1,3.7-6.8c11.2-8.5,44.5-1.2,44.8-1.1
						c20.2,4.6,43.9,16,59.9,24.3c12.8-2.1,28.7-4.8,49-4.6C-0.3,49.7-3.7,42-9,36.7c-3.3,2.5-6.5,4.9-9,5.7
						c-3.1,1.1-8.2,0.9-11.4-1.5c-2.5-1.8-3.6-4.7-3.5-8.5c0.1-2.7,1.4-4.6,3.6-5.5c5.1-2.1,14.1,1.4,19,5.9C-9.6,31.9-9,31-8.4,30
						c5.3-9.1,12.8-10.6,17.1-10.6c0.1,0,0.3,0,0.4,0c0.1,0,0.1,0,0.2,0l0.1,0c0.2,0,0.5,0,0.7,0c0.3,0,0.6,0.1,0.9,0.1
						c2.8,0.4,5.5,1.4,7.4,2.8c6.2,3.6,10.9,9.7,12.4,15.7c2.5,10,1.9,12.5,1.8,12.6l-0.9,0.8l0-0.3c0,0-0.1-2.4-1.1-5.7
						c-0.1-0.1-0.1-0.3-0.2-0.5c-0.6-1.4-1.8-4.3-4.1-7.4c-0.6-0.8-1.2-1.4-1.7-2c-2.6-2.7-5.4-4.7-8.3-5.9
						c-1.7-0.7-3.6-1.2-5.5-1.5c-5.4-0.6-9.5,1.3-11.5,2.5C-3,32.1-5.4,34-7.6,35.6c4.4,5.6,9.1,13.3,9.1,13.4
						C2.3,50.6,3,52.2,3.5,54"/>
				</g>
				<g id="g196" transform="translate(154.6636,101.8906)">
					<path id="path198" d="M-11.5,34.5l-1.2,5.1l-2.7-4.8l-5.2,0.4l3.7-3.2l-2.6-4.7l5.1,2.6l4.9-4.3l-1.4,6.1l4.7,2.4L-11.5,34.5z"
						/>
				</g>
				<g id="g200" transform="translate(181.168,97.0303)">
					<path id="path202" d="M-11.5,34.5l1.1-5.3l2.1,5.3l6.5,0l-5,3.7l2,4.8l-4.3-3.1l-4.2,3.1l1.1-5.4l-4.2-3.1L-11.5,34.5z"/>
				</g>
				<g id="g204" transform="translate(207.8516,110.4922)">
					<path id="path206" d="M-11.5,34.5l1.1-5.3l2.1,5.3l6.5,0l-5,3.7l2,4.9l-4.3-3.1l-4.2,3.1l1.1-5.4l-4.2-3.1L-11.5,34.5z"/>
				</g>
				<g id="g208" transform="translate(185.7871,264.4302)">
					<path id="path210" d="M-11.5,34.5c0.5,0.3,0.9,0.5,1.4,0.5c0.5,0,0.9-0.2,0.9-0.2c0.3-0.2,2.4-2.6-2.4-7.5
						c-2-2.1-4.5-3.9-7.5-5.3C-17.4,30-12.9,33.6-11.5,34.5 M-40.3-13.7c-11.9-6.6-21-9.9-28-10.1c-7.1-0.2-9.7,1.1-10.7,2.2
						c-0.7,0.8-0.6,1.6-0.5,1.9c0,0.1,0,0.1,0,0.1c0.2,0.9,5.8,7,24.8,7.1l0.6,0C-49.3-12.5-45-12.9-40.3-13.7 M-3.9,44.9
						c-2,3.3-1.6,4.2-0.9,4.7c0.2,0.2,0.5,0.3,0.9,0.3c0.9,0,2.1-0.7,3-1.8c0.6-0.8,1.4-2.7,1.8-6C-1.5,42.6-3.1,43.5-3.9,44.9
						 M-47,32.1c0.2,2.8,1.7,26.3,3.1,31.7c1.4,5.9,3.2,6.7,4.8,6.7c0.7,0,2.4-0.4,3.8-1.9c1.3-1.3,2.9-4,2.9-9.1
						C-32.5,49.8-38.6,38.4-47,32.1 M-70.1,48.6c1.1,0.5,2,0.7,2.6,0.7v0.1c0,0,0,0,0,0l0.1-0.1c3.1-0.1,4.7-4,4.8-11.2
						c0.1-12.6-6.1-19-19-19.4C-81.4,27-79.5,41.8-70.1,48.6 M-100.8,38.7c0,3.1,1.1,5.3,3.6,7.5c1.3,1.1,2.7,1.7,3.9,1.7
						c0.8,0,1.4-0.3,1.9-0.7c0.5-0.5,0.9-1.4,0.9-2.5c-0.1-1.1-0.6-2.2-1.7-3.2C-94.8,39.5-96.1,38.7-100.8,38.7 M-116,10.5l0.5-0.2
						l-0.4,0.4c-0.1,0.1-7,8.7-2.7,15.9c4.5,7.5,11.1,8.8,13.3,9.2c1.2,0.2,2.2,0.5,3.1,0.7c0.1-1.4,0.6-4.8,2.2-8.3
						c0,0,0.1-0.4,0.5-0.9c1.8-3.6,4.2-6.3,7.3-8.1c-0.2-2.5-0.4-4.9-0.4-7.3c0-0.2,0.2-21,14.3-21C-66.6-9.1-57,15-56.9,15.3
						l0.6,1.6C-57.5,6.3-58.7,0.1-60-2.3l-0.1-0.3l0.3,0.1c0,0,4.5,1.1,6.9,1.5c2.4,0.4,4.5,0.6,4.5,0.6l0.1,0l0.6,18.1
						c2,2.8,4.6,6.3,5.6,7.3c1,1.1,2.3,1.4,2.9,0.8c0.4-0.4,0.5-1.2,0.3-2.3c-0.1-0.9-0.3-1.7-0.5-2.5c-0.5-2.4-0.9-4.7-0.9-7.2
						c0-2.6,0.4-15.9,8.7-16.3c2.4-0.1,4.5-0.2,6.3-0.2c3.1,0,4.1,0.2,4.2,0.2l0.1,0v0.9l-0.1,0c-0.1,0-8.5,2.4-9.8,7.2
						c-0.9,3.3-1.3,6.8-1.1,10.3c1.7,0.3,3.4,0.7,4.9,1c-0.2-1.9-0.1-3.6,0.1-5.4C-25.9,0.7-14.9,0.4-13.6,0.4l0.1,0
						c0,0,0.2,0,0.4,0c2.3,0,13.6,1.3,15.9,26.4c0,0.3,0.8,6.5,0.4,12.5c0.7-0.1,1.5,0,2.2,0l5,0.6c-0.6-1.5-4.6-11.2-6-19.1
						C3,12.2,3,10.8,3,10.7v-0.2l3.8,0.8c0.7,0.1,1.3,0.1,1.9,0.1c4.1,0,9-1.6,9-9.2c0,0,0.5-5-3.2-9.4c-3.6-4.3-9.9-6.7-18.7-7.1
						c-1.5-0.1-3-0.1-4.4-0.1c-8.6,0-13.5,1.3-18.7,2.7l-1,0.3C-22.8-8-17.3-5-14.7-4.8c5.3,0.3,6.5-0.5,8-1.8l1.6-1.5l0.3,0.8
						c0,0-1.4,4.3-8.1,4.3c-7,0-9.9-0.4-17.9-5.1l-3.2-1.9c-6.5,1.3-13.5,1.8-22.5,1.5c-26.9-0.8-28.9-11.9-28.9-12.1
						c0-0.1,0.7-7.8,16.7-7.8c0,0,0.2,0,0.5,0c2.2,0,10,0.4,20.3,5.5c4.1,2,9.2,5.2,13.7,8l1.2-0.3c7.4-1.6,15-3.3,28.7-3
						C12.2-17.9,21.2-11,25.1-7c4,4.2,5.8,8.5,5.7,10.9c-0.1,4.1-4.3,9.9-13.4,9.9c-1.4,0-2.9-0.1-4.4-0.4
						c-0.1,2.8-0.3,11.8,3.7,22.2c0.2,0.4,0.4,0.8,0.6,1.3c0.9,2,1.8,3.8,1.2,4.9c-0.4,0.7-1.5,0.9-3.4,0.6
						c-4.7-0.7-7.9-0.8-9.9-0.8c-0.3,0-1.1,0-2.2,0.1c-0.4,3.4-1.2,5.9-2.3,7.5c-0.1,0.1-2.2,3-4.9,3c-0.6,0-1.2-0.1-1.7-0.4
						c-0.9-0.5-1.4-1.2-1.7-2.1c-0.5-2.2,1-4.9,1.6-5.7c1.1-1.6,3.7-3.5,6.9-4.3C1.1,37.8,1.1,36,1,34c-0.2-1.9-0.5-4.5-1-7.5
						c-0.1-0.4-0.1-0.7-0.2-1.1c-1.7-9.1-5.4-20-13.6-19.6c-0.9,0-2,0.7-3,1.8c-1.1,1.2-3.4,4.8-2.8,11.6c10.5,3.5,16,8.3,16.3,14.1
						l0,0.1c0.1,1.9-1.1,3.6-2.3,4.5l0,0c0,0-0.2,0.1-0.4,0.3c-0.3,0.2-0.5,0.3-0.8,0.4c-2.5,1.1-5.6,0.6-8.9-1.7
						c-4.6-3.1-10-9.5-11.5-17.9c-2.1-0.5-3.8-0.7-5-0.8c0.1,0.6,0.2,1.1,0.3,1.7c0.2,1.1,0.6,2.2,0.9,3.4c1.1,3.5,2.2,7.2-1,9
						c-0.8,0.5-1.6,0.7-2.4,0.7c-3,0-6.4-3.1-13.3-12.3l0.3,7.9c1,0.7,16.5,12,17.7,27.6c0.5,7.1-0.6,12.2-3.4,15.3
						c-2.4,2.6-5.3,2.8-6.2,2.8c-2.4,0-11.7-2.8-13.2-16.6c-0.4-3.5-0.8-8.8-1.3-14.8c-0.4-5.4-0.9-11.4-1.5-17.2
						c-3.5-7.4-12.5-24.6-21.5-24.8c-3.9,0-4.6,10.3-4.6,10.4c0,0-0.2,2.1-0.2,5.4c1.5,0,3,0.1,4.4,0.2c3.9-0.1,7.4,0.8,10.4,2.9
						c2.3,1.3,4,3.1,5.4,5.5c4.6,6.8,6.1,16.7,3.7,24.7c-1,4.6-3.6,7.2-7.2,7.2c-3.2,0-7.2-2-11.7-5.9c-4.6-4.5-11.5-11.4-15.3-29.7
						c-5.8,4-8.3,11.5-8.8,15.4c0.9,0.2,1.8,0.4,2.8,0.6c2.2,0.5,2.8,0.6,4.7,1.7c2.6,1.4,4.2,3.2,4.5,5c0.2,1.3-0.2,2.6-1.3,3.9
						c-0.9,1-2,1.6-3.4,1.6c-2.4,0-4.7-1.7-5.3-2.5c-0.1-0.1-0.2-0.3-0.4-0.5c-1-1.3-3-3.7-3.1-7.8l-1.5,0c-6.7,0-14.9-1-18.8-9.2
						c-1.8-3.7-2.1-7.4-0.8-10.9C-121.8,14.5-118.4,11.6-116,10.5"/>
				</g>
			</g>
		</g>
	</g>
</g>
</svg>
