<?xml version="1.0" standalone="no"?>
<!DOCTYPE svg PUBLIC "-//W3C//DTD SVG 20010904//EN"
 "http://www.w3.org/TR/2001/REC-SVG-20010904/DTD/svg10.dtd">
<svg version="1.0" xmlns="http://www.w3.org/2000/svg"
 width="1280.000000pt" height="1280.000000pt" viewBox="0 0 1280.000000 1280.000000"
 preserveAspectRatio="xMidYMid meet">
<metadata>
Created by potrace 1.15, written by Peter Selinger 2001-2017
</metadata>
<g transform="translate(0.000000,1280.000000) scale(0.100000,-0.100000)"
fill="#000000" stroke="none">
<path d="M6670 12434 c-25 -9 -50 -21 -57 -27 -7 -7 -49 -75 -94 -152 -315
-539 -793 -1199 -1235 -1706 -64 -74 -123 -141 -131 -150 -11 -13 -7 -67 27
-360 181 -1573 350 -3381 415 -4444 3 -55 8 -118 10 -140 2 -22 12 -175 22
-340 15 -252 20 -302 34 -316 47 -47 288 -58 444 -20 133 32 190 52 533 188
301 119 425 173 436 191 3 5 23 269 46 588 115 1641 128 1806 220 2849 27 308
63 720 80 915 55 634 75 844 125 1315 43 406 49 486 49 720 0 271 -15 379 -68
492 -56 117 -76 132 -393 281 -277 130 -283 132 -350 132 -37 -1 -88 -8 -113
-16z"/>
<path d="M6653 4459 c-102 -10 -171 -35 -513 -188 -406 -181 -520 -257 -652
-435 -186 -250 -270 -595 -254 -1046 17 -504 122 -814 347 -1025 157 -147 310
-205 541 -205 197 0 389 51 524 139 99 64 505 380 572 445 163 158 282 425
332 741 34 212 29 554 -10 744 -64 317 -232 596 -434 726 -74 47 -199 93 -274
100 -31 3 -68 7 -82 9 -14 1 -57 -1 -97 -5z"/>
</g>
</svg>
