<?xml version="1.0" encoding="utf-8"?>
<!-- Generator: Adobe Illustrator 22.0.0, SVG Export Plug-In . SVG Version: 6.00 Build 0)  -->
<svg version="1.1" id="Calque_1" xmlns="http://www.w3.org/2000/svg" xmlns:xlink="http://www.w3.org/1999/xlink" x="0px" y="0px"
	 viewBox="0 0 700 700" enable-background="new 0 0 700 700" xml:space="preserve">
<ellipse fill="#FF7070" stroke="#FF4242" stroke-width="9" stroke-miterlimit="10" cx="349.5" cy="350" rx="344" ry="317.5"/>
<g>
	<g transform="translate(0.000000,1280.000000) scale(0.100000,-0.100000)">
		
			<path fill="#6699FF" stroke="#4281FF" stroke-width="4" stroke-linecap="round" stroke-linejoin="round" stroke-miterlimit="10" d="
			M3702.5,11822.6c-17-4.2-33.9-9.7-38.7-12.5c-4.7-3.2-33.2-34.8-63.8-70.5c-213.6-250-537.8-556-837.6-791.1
			c-43.4-34.3-83.4-65.4-88.8-69.6c-7.5-6-4.7-31.1,18.3-166.9c122.8-729.4,237.4-1567.9,281.5-2060.8c2-25.5,5.4-54.7,6.8-64.9
			c1.4-10.2,8.1-81.2,14.9-157.7c10.2-116.9,13.6-140,23.1-146.5c31.9-21.8,195.3-26.9,301.1-9.3c90.2,14.8,128.9,24.1,361.5,87.2
			c204.1,55.2,288.2,80.2,295.7,88.6c2,2.3,15.6,124.7,31.2,272.7c78,761,86.8,837.5,149.2,1321.2c18.3,142.8,42.7,333.9,54.3,424.3
			c37.3,294,50.9,391.4,84.8,609.8c29.2,188.3,33.2,225.4,33.2,333.9c0,125.7-10.2,175.8-46.1,228.2c-38,54.3-51.5,61.2-266.5,130.3
			c-187.9,60.3-191.9,61.2-237.4,61.2C3754.1,11829.5,3719.5,11826.3,3702.5,11822.6z"/>
		
			<path fill="#6699FF" stroke="#4281FF" stroke-width="4" stroke-linecap="round" stroke-linejoin="round" stroke-miterlimit="10" d="
			M3691,8124.3c-69.2-4.6-116-16.2-347.9-87.2c-275.3-83.9-352.7-119.2-442.2-201.7c-126.1-115.9-183.1-275.9-172.3-485.1
			c11.5-233.7,82.7-377.5,235.3-475.3c106.5-68.2,210.2-95.1,366.9-95.1c133.6,0,263.8,23.6,355.4,64.5
			c67.1,29.7,342.5,176.2,387.9,206.4c110.5,73.3,191.3,197.1,225.2,343.6c23.1,98.3,19.7,256.9-6.8,345
			c-43.4,147-157.3,276.4-294.3,336.7c-50.2,21.8-135,43.1-185.8,46.4c-21,1.4-46.1,3.2-55.6,4.2
			C3747.3,8127.1,3718.1,8126.2,3691,8124.3z"/>
	</g>
</g>
<g>
</g>
<g>
</g>
<g>
</g>
<g>
</g>
<g>
</g>
<g>
</g>
<g>
</g>
<g>
</g>
<g>
</g>
<g>
</g>
<g>
</g>
</svg>
