<?xml version="1.0" standalone="no"?>
<!DOCTYPE svg PUBLIC "-//W3C//DTD SVG 20010904//EN"
 "http://www.w3.org/TR/2001/REC-SVG-20010904/DTD/svg10.dtd">
<svg version="1.0" xmlns="http://www.w3.org/2000/svg"
 width="480.000000pt" height="480.000000pt" viewBox="0 0 480.000000 480.000000"
 preserveAspectRatio="xMidYMid meet">
<metadata>
Created by potrace 1.15, written by Peter Selinger 2001-2017
</metadata>
<g transform="translate(0.000000,480.000000) scale(0.100000,-0.100000)"
fill="#000000" stroke="none">
<path d="M2518 3900 c-79 -18 -153 -45 -271 -99 -37 -17 -69 -31 -72 -31 -2 0
-48 -27 -102 -59 -59 -36 -140 -99 -204 -158 -108 -100 -145 -123 -424 -261
-38 -19 -92 -50 -120 -67 -27 -18 -79 -47 -115 -65 -84 -42 -338 -210 -369
-244 -24 -26 -24 -26 -5 -41 67 -51 288 -86 584 -92 129 -3 243 -10 253 -15
16 -8 17 -19 11 -106 -5 -87 0 -146 22 -249 8 -40 2 -41 -70 -8 -73 33 -83 31
-21 -3 88 -50 95 -55 91 -79 -3 -12 -32 -91 -67 -175 -34 -84 -66 -169 -71
-188 -6 -19 -20 -48 -32 -65 -19 -25 -65 -101 -77 -127 -2 -4 6 -15 19 -23 26
-19 30 -83 9 -133 -11 -27 -14 -29 -31 -16 -14 10 -23 11 -32 3 -9 -7 -15 -5
-23 8 -8 14 -12 16 -22 6 -21 -21 -27 -15 -22 23 10 71 -13 24 -37 -76 -15
-64 -20 -104 -14 -110 5 -5 46 -23 91 -39 44 -16 90 -34 101 -40 22 -12 109
-149 104 -164 -1 -5 2 -6 7 -3 5 4 16 -2 23 -12 25 -34 145 -120 214 -153 115
-53 152 -68 158 -62 3 4 6 1 6 -5 0 -7 10 -12 23 -12 12 0 32 -6 43 -14 34
-24 143 -52 240 -62 69 -7 175 22 223 60 8 6 37 12 65 12 70 2 259 14 326 20
30 3 67 6 83 7 15 1 27 4 27 7 0 3 18 6 41 7 22 2 38 -1 35 -5 -8 -13 208 5
244 20 48 21 71 50 72 89 1 18 9 47 20 64 17 30 48 119 48 140 0 6 -13 -17
-29 -50 -41 -83 -62 -105 -103 -106 -36 0 -87 -17 -57 -18 20 -1 29 -21 29
-66 0 -39 -2 -41 -53 -50 -33 -7 -37 -5 -37 15 0 41 -29 80 -60 80 -11 0 -9
-5 7 -18 30 -24 40 -67 17 -76 -24 -9 -101 3 -142 22 -38 17 -39 43 -2 52 25
7 25 7 -5 13 -52 12 -377 11 -430 -2 -27 -6 -79 -16 -114 -21 -87 -14 -111
-21 -111 -31 0 -5 18 -6 39 -3 31 5 43 2 60 -15 27 -27 27 -67 0 -82 -12 -6
-19 -7 -16 -2 9 14 -21 73 -37 73 -13 0 -13 -4 0 -30 12 -22 12 -34 4 -50 -6
-11 -14 -20 -18 -20 -4 -1 -26 -5 -50 -9 -36 -7 -44 -6 -49 8 -16 52 -27 71
-40 71 -12 0 -12 -3 2 -16 21 -21 16 -55 -10 -64 -12 -5 -51 1 -98 15 -116 33
-117 41 -5 57 40 6 78 15 83 20 7 7 0 8 -20 4 -16 -4 -73 -9 -125 -12 -88 -6
-101 -4 -177 24 -153 58 -214 95 -291 177 -73 78 -104 137 -122 233 l-8 44 49
30 c27 16 49 32 49 35 0 13 -55 100 -83 132 -26 31 -29 40 -24 85 3 28 11 63
17 78 11 23 17 26 44 20 17 -3 42 -6 56 -7 24 0 25 2 22 55 -2 30 -10 75 -18
99 -18 54 -12 89 37 203 45 103 51 146 33 248 -34 196 -3 289 116 348 51 25
39 34 -37 27 -271 -27 -327 -25 -391 18 -60 39 -91 75 -123 142 -38 79 -37
150 4 188 52 51 298 181 477 252 173 70 277 125 141 75 -30 -11 -56 -18 -57
-17 -8 7 198 191 261 234 60 40 386 166 500 192 26 6 31 9 15 9 -14 0 -60 -8
-102 -18z"/>
<path d="M3444 3423 c-63 -47 -56 -155 16 -235 31 -35 42 -41 86 -45 43 -4 55
-2 78 18 34 30 36 68 10 145 -23 70 -75 115 -137 121 -23 2 -47 0 -53 -4z"/>
<path d="M3886 3372 c5 -4 26 -20 46 -36 44 -32 54 -61 38 -110 -10 -32 -72
-96 -92 -96 -4 0 -35 34 -68 76 -33 42 -60 72 -60 67 0 -5 17 -31 38 -58 24
-32 33 -50 24 -52 -6 -3 -9 -9 -6 -15 4 -6 9 -6 14 2 5 8 7 3 7 -13 -2 -23 -4
-24 -18 -11 -24 22 -31 17 -14 -9 12 -19 13 -33 6 -63 l-9 -39 -2 50 c-2 41
-3 45 -10 25 -24 -75 -3 -151 52 -188 29 -18 36 -28 25 -30 -9 -2 -26 4 -39
12 -34 22 -98 47 -98 39 0 -5 16 -16 35 -25 44 -22 124 -85 154 -121 18 -21
21 -31 12 -40 -6 -6 -11 -16 -11 -21 0 -6 4 -5 9 2 5 9 11 -4 15 -38 4 -29 5
-55 1 -58 -3 -3 -5 6 -5 20 0 13 -2 27 -5 30 -3 2 -27 -17 -55 -44 -27 -26
-58 -48 -67 -48 -15 0 -16 2 -3 10 8 5 13 10 10 10 -101 16 -129 17 -210 2
-85 -16 -221 -15 -290 2 -84 20 -240 75 -290 102 -77 42 -160 130 -145 154 3
5 22 10 40 10 28 0 37 -6 50 -29 35 -69 172 -146 315 -177 82 -17 284 -18 325
0 28 12 29 13 9 20 -46 14 -166 34 -184 29 -28 -8 -184 15 -227 33 -21 9 -55
30 -76 46 -46 37 -46 63 2 95 19 13 29 23 22 23 -6 0 -11 5 -11 10 0 6 10 9
23 7 12 -2 16 -2 10 0 -16 6 -17 23 -1 23 6 0 9 2 7 5 -3 2 -39 -9 -81 -25
-116 -45 -355 -77 -448 -60 l-40 7 0 -45 c0 -24 -8 -66 -17 -93 -17 -47 -17
-50 2 -86 86 -161 342 -267 729 -304 l129 -12 -28 -24 -28 -24 27 -52 c15 -29
25 -41 21 -27 -17 75 -17 75 11 103 29 30 65 41 164 55 l65 8 185 -94 c102
-52 219 -114 260 -137 87 -49 254 -135 262 -135 4 0 4 9 1 21 -4 15 -8 17 -14
8 -5 -9 -11 -10 -21 -2 -18 14 -153 86 -273 146 -55 28 -113 60 -130 72 -16
12 -85 50 -153 84 -146 72 -159 83 -146 119 8 24 15 27 60 30 40 2 62 -3 98
-23 28 -16 44 -20 40 -12 -3 8 10 25 31 41 56 43 68 76 63 177 -4 82 -7 91
-37 129 -29 37 -32 45 -25 83 3 23 7 64 8 92 l2 49 135 27 c148 29 247 63 256
86 9 24 -52 63 -294 190 -96 50 -130 64 -107 45z m-1099 -543 c6 -70 80 -133
221 -187 77 -30 288 -82 330 -82 11 0 22 -7 26 -15 7 -19 3 -19 -129 5 -305
54 -426 113 -504 248 l-30 52 42 0 c36 0 43 -3 44 -21z"/>
<path d="M2345 3255 c-68 -32 -105 -89 -105 -164 0 -71 42 -140 100 -163 33
-13 118 -11 153 3 76 31 109 185 57 263 -45 68 -134 94 -205 61z"/>
<path d="M2293 2839 c31 -18 57 -37 57 -42 0 -7 -5 -6 -12 1 -7 7 -16 12 -22
12 -6 0 -5 -5 2 -12 14 -14 16 -32 3 -24 -5 3 -11 -3 -14 -14 -4 -16 -12 -19
-39 -17 -18 2 -40 -2 -48 -9 -21 -17 -85 -30 -76 -15 4 6 2 11 -3 11 -6 0 -11
9 -11 20 0 16 -7 20 -32 21 -18 0 -27 3 -20 6 6 2 12 9 12 15 0 6 12 21 28 34
33 29 15 32 -20 4 -109 -85 -54 -271 92 -314 78 -23 157 11 195 85 20 37 19
142 0 180 -17 33 -75 72 -120 83 -21 4 -13 -3 28 -25z"/>
<path d="M3471 1665 c-2 -20 -97 -112 -133 -128 -41 -19 -68 -22 -68 -7 0 6
-9 10 -20 10 -14 0 -20 7 -20 23 0 12 -9 28 -20 35 -15 9 -19 19 -14 40 4 21
3 24 -5 12 -17 -23 -14 -80 4 -80 8 0 15 -9 15 -19 0 -11 14 -27 33 -38 51
-30 108 -14 168 48 29 30 50 45 55 38 17 -28 34 -122 35 -199 1 -78 2 -81 10
-40 10 49 -2 170 -25 260 -8 30 -15 50 -15 45z"/>
</g>
</svg>
