<?xml version="1.0" standalone="no"?>
<!DOCTYPE svg PUBLIC "-//W3C//DTD SVG 20010904//EN"
 "http://www.w3.org/TR/2001/REC-SVG-20010904/DTD/svg10.dtd">
<svg version="1.0" xmlns="http://www.w3.org/2000/svg"
 width="1280.000000pt" height="1280.000000pt" viewBox="0 0 1280.000000 1280.000000"
 preserveAspectRatio="xMidYMid meet">
<g transform="translate(0.000000,1280.000000) scale(0.100000,-0.100000)"
fill="#cddc39" stroke="none">
<path d="M8130 10963 c-83 -447 -457 -804 -893 -852 -64 -7 -559 -11 -1480
-11 -1344 0 -1386 -1 -1461 -20 -213 -54 -387 -197 -480 -394 -61 -128 -70
-185 -70 -426 1 -200 2 -221 26 -297 l25 -83 -96 0 c-331 0 -622 -204 -734
-515 -41 -114 -50 -201 -45 -426 5 -181 8 -213 30 -284 14 -44 28 -87 32 -96
6 -13 -9 -19 -79 -37 -47 -11 -120 -36 -163 -54 -267 -116 -472 -366 -539
-658 -23 -100 -29 -478 -9 -605 31 -206 118 -379 265 -526 140 -139 319 -233
498 -261 l73 -12 -69 -17 c-187 -48 -320 -166 -390 -347 -25 -67 -26 -67 -29
-436 -2 -251 0 -391 8 -438 27 -156 137 -307 279 -382 109 -57 169 -66 458
-66 l251 0 6 -28 c3 -15 58 -418 121 -895 64 -478 124 -895 134 -927 62 -197
224 -359 427 -426 l89 -29 2470 0 2470 0 86 31 c200 71 348 219 414 411 18 52
51 279 139 943 64 481 119 885 121 897 5 22 9 23 133 23 70 0 157 7 193 14
179 38 326 165 396 342 l28 69 3 386 c4 428 0 464 -59 582 -41 80 -153 192
-232 231 -33 16 -91 37 -130 47 -40 10 -61 18 -47 18 101 4 285 70 396 142
238 156 387 393 425 675 18 140 7 508 -20 612 -44 175 -134 326 -270 454 -130
122 -283 202 -454 238 -48 10 -57 15 -51 28 3 10 18 51 32 92 23 69 26 92 30
297 3 181 1 237 -13 304 -75 371 -389 629 -767 629 -103 0 -97 -12 -62 110 16
56 19 99 18 300 0 212 -3 247 -26 355 -29 137 -82 286 -140 395 -175 329 -490
621 -899 834 -114 60 -330 156 -349 156 -4 0 -13 -30 -20 -67z"/>
</g>
</svg>
