<svg version="1" xmlns="http://www.w3.org/2000/svg" width="1120" height="1120" viewBox="0 0 840.000000 840.000000"><path d="M383.8 89.5c-6.4 2.3-12.5 7.3-18.6 14.9-2.3 2.9-7.2 14.4-7.8 18.3-.3 2.1-.7 4-.9 4.3-.2.3-.6 4.1-1 8.5s-.9 9.3-1.1 11c-.1 1.6-.6 7-1 12-.3 4.9-.8 10.3-.9 12-1.2 13.2-1.8 20.7-2 24.5-.2 2.5-.3 4.5-.4 4.5-.1 0-.4 3.1-.7 7-.4 3.8-.7 7.9-.8 9-.3 3.6-10.7 23.3-18.4 35-8.7 13.3-22.2 27.9-26.9 29.1-1.3.4-2.3 1-2.3 1.4 0 .9-4 2.1-8.7 2.5-2 .3-3.9-.3-5.2-1.4-2.3-2-5.7-9.1-6.5-13.6-.3-1.7-.8-4.1-1.1-5.5-.9-4.8-1.6-21-.8-21.1 2.4-.3 7.7-.7 14.3-.9 15.2-.5 28.8-7.7 37.4-19.7 6.8-9.5 14.8-30.6 13.2-34.8-.3-.8-.1-1.5.3-1.5.5 0 .8-5.5.6-12.3-.8-32.2-12.5-45.1-32.9-36.6-16.2 6.8-34.6 25.5-44.9 45.7-4.4 8.4-11.1 25.3-12.1 30.3-.3 1.3-.9 3.9-1.5 5.7-.5 1.8-1 3.5-1 3.7.1 1.9-1.4 6.5-2.1 6.5-2 0-12.8-13.2-15.9-19.5-3.7-7.4-7.3-19.6-6.3-20.7.4-.4 3.7-1.4 7.5-2.2 11.8-2.7 20.7-8.9 23.1-16 1.2-3.3 1.1-4.5-.1-7.5-4.4-10.5-15.8-11.7-24.9-2.6-4.2 4.3-8.2 10.9-9 14.9-1 5.2-1.4 6.9-1.6 7.2-.2.1-4.8.5-10.3.8-20.3 1.1-31.9 6.6-40.3 18.9-9.1 13.3-9.6 29.6-1.3 42.6 4.1 6.4 12.7 14.1 15.6 14.1.6 0 .6-.3-.1-.8-1.9-1.2-7.3-11.6-9-17.2-3.4-11.6-1.7-20.1 6.1-30.5 5.4-7.2 17.3-15.7 23.8-16.9 1.2-.3 2.2-.5 2.2-.6 0-.2 1.3-.5 5.5-1.3 1.4-.3 3.7-.8 5.2-1.2 2.1-.5 2.7-.3 3.2 1.3.4 1.1.6 2.4.5 2.8-.1.5-.1 1.1.1 1.4.1.3.3 1.6.6 3 .5 3 4.5 14.3 5.3 15 .3.3 1.5 2 2.5 3.9 3.3 5.8 10 13.4 14.9 16.5 2 1.4 2.3 2.3 2.1 5.9-.5 7.8-.5 21.2.1 24.4.3 1.8.7 4.5.9 6 .7 4.9 3.8 14.6 6.3 20 8.4 17.8 26.1 25.3 41.8 17.8 10.1-4.7 25.7-22.2 33.2-37 1.4-2.8 2.8-5.2 3.2-5.5.5-.4 5.2-9.7 5.6-11 .1-.3 1-2.5 2.1-5 1-2.5 1.7-4.9 1.6-5.3-.1-.5.2-.6.8-.2.6.3.9.9.6 1.3-.2.4-.6 2.9-1 5.7-1.4 11.8-4.7 29.6-6.5 35.5-1.1 3.5-1.9 6.6-1.7 6.7.2.2 4.1-.5 8.7-1.6s10.2-2.2 12.4-2.6c6.1-.8 8.7-1.4 9.3-1.9.2-.3.6-6.7.8-14.3.2-7.6.6-18.1.7-23.4l.3-9.6 4.9-6.9c2.6-3.8 7-9.1 9.6-11.7 4.2-4.2 5.1-4.7 6.8-3.7 2.4 1.3 2.8 2.9 1.7 8.5-3.2 17.7-3.9 29.4-2.2 37.8.3 1.5.8 3.9 1.1 5.4 1 4.9 4.8 13.7 7.4 17.1 2.8 3.4 7.5 6.1 12.3 6.9 3.9.6 24.8 1 27.6.5 3.3-.6 2.7-2.1-1.5-3.8-9.1-3.7-13.1-6.1-17.4-10.5-4.1-4-4.9-5.5-6.3-12-2.1-9.6-2.8-21.5-1.2-22.7 1-.9 7.4-2.5 10.5-2.6 1.1-.1 1.4 1.7 1.6 7.5.2 4.2.6 8.5.9 9.7.4 1.1.9 3 1.1 4.2.6 3.3 4.9 10.2 8.1 13 3.1 2.7 10 6.2 14.9 7.5 11 2.9 20.5 1.8 27.4-3.3 5.1-3.7 11.8-11 13.3-14.4.7-1.5 1.6-2.8 2-2.8.5 0 .8-.9.8-1.9 0-1.1.4-2.2.9-2.6 1.1-.6 5.6-14.1 7.6-23 .4-1.6 1.3-7.5 2-13 .3-2.8.9-6.6 1.1-8.5.4-2.7 1.3-23.1 1.4-31.6 0-.7 1.2-1.1 2.8-1.1 1.5 0 5.5-.3 9-.6 3.4-.4 6.2-.4 6.2 0 0 .7-6.1 17.9-8.1 22.8-.7 1.9-1.9 5.7-2.5 8-.3 1.2-1 3.7-2.4 9-1 3.8-1.4 5.6-2.4 11.5-.3 1.4-.5 2.5-.6 2.5-.1 0-.3 1.3-.5 3-.1 1.6-.8 6.8-1.5 11.4-.6 4.5-.9 8.5-.7 8.7.2.3 2.7-.1 5.6-.7 2.8-.6 5.8-.8 6.6-.5.8.3 1.5.1 1.5-.4s.6-.8 1.3-.5c.6.2 3.2.6 5.6.9 2.4.3 5.1 1.1 5.9 1.8.8.7 1.6 1.1 1.6.8.3-.9 5.2 3.5 7.1 6.3 5.1 7.8 5 22.1-.2 32.7-6.8 13.9-21.6 22.4-44 25.3-10.1 1.3-33 1.5-43.1.3-5.7-.7-23.7-4.3-26.2-5.3-.8-.3-2.1-.7-2.8-.9-.8-.1-1.6-.4-1.8-.7-.7-.6 10.5-7.1 21.4-12.4 8.3-4 10.8-4.7 17.4-5.1 8.7-.5 14.4 1.1 19 5.6 3.3 3 4.7 2.3 2.8-1.4-1.7-3.1-5.1-5.5-10.5-7.6-4.1-1.5-22-1.8-29.3-.4-7.4 1.4-17.8 6.2-31.3 14.2-3.7 2.2-6.4 3.2-8 2.9-3-.6-8-1.3-13.9-2-2.5-.3-6.5-.8-9-1.1-13.1-1.7-50.7-.2-65 2.6-13.4 2.5-25 6.8-32.5 11.9-5.5 3.7-12.5 10.9-12.5 12.8 0 .7-.4 1.3-.9 1.3-1.6 0-.4 6.8 1.8 9.8 3.5 4.9 11.9 10.3 18.1 11.6 1.4.3 3.6.8 5 1.1 1.4.4 8.6.8 16 1 21.3.5 38.2-4 62-16.2 6.9-3.6 13-6.9 13.6-7.4 2.4-2 18-11.1 19.4-11.3.8-.2 3.7.3 6.5 1 5.3 1.4 6.1 1.5 20 3.8 14.3 2.4 19.7 2.8 41.5 3.1 18.9.2 25.7-.2 40-2.9 11.7-2.2 32.9-11.7 38.8-17.3.7-.7 1.7-1.3 2.1-1.3 1.4 0 12.8-11.7 16.2-16.7 4.7-6.7 7.8-15 7.9-20.4 0-8.8-6.6-17.7-16.6-22.4-6.7-3.1-11-3.9-21.9-3.9l-9-.1.1-3.5c.4-21.5 4.6-42.6 11.6-58 3.7-8.2 4.4-12.3 2.3-14-1.5-1.2-10.7-1.6-12.6-.4-.5.3-7 .8-14.4 1.1-12.7.5-13.5.4-13.7-1.3-1.1-14.5-9.6-26.4-18.9-26.4-10 0-12.4 10.9-4.7 21.5 3.1 4.3 9.7 9.2 13.7 10.2 4.9 1.1 5.1 1.7 4.6 13.6-.2 6.2-.6 12.3-.9 13.7-.3 1.3-.8 4-1.1 6-4.8 32-15.9 53.5-29.8 57.5-6.4 1.8-10.3 1.2-14-2.3-5.5-5.1-8.7-14.1-9.1-24.9-.3-6.6.2-7.5 4.4-8.8 4.6-1.4 17.3-7.6 21.9-10.8 10.4-7.1 16.6-16.1 17-24.9.6-12.3-11.6-19.4-24.9-14.2-15.1 5.8-33 28.1-37.3 46.2-1.1 4.8-1.5 5.3-4.7 6.2-7.8 2-10.2 1.7-9.5-1.3.4-1.3.7-3 .9-3.8.1-.8 1-3.9 1.9-6.9 3.3-11.4 3.6-15.4 1.3-19.9-3.1-5.9-11.8-7.5-18.5-3.4-3.7 2.3-14.6 13.7-21.1 22.1-3 3.9-5.9 7.1-6.3 7.2-.5 0-.6-.4-.3-.8.3-.5.6-4.9.8-9.8.2-7.5.5-9.2 2.3-10.6 1.1-1 7-6.6 13-12.5 16.7-16.4 26.7-32.9 30.8-50.8 2.1-9 1.7-29.6-.7-37.2-4.9-15.5-18-23.5-30.8-18.8zm11.9 9.6c10 3.8 15.8 19.5 13.2 35.7-1.4 8.5-1.8 10.3-4 17.1-2.1 6.4-8.5 20.1-9.8 21.1-.4.3-2.2 2.9-4 5.7-1.8 2.9-3.7 5.3-4.2 5.3s-.9.5-.9 1.2c0 2.1-14.3 14.9-15.1 13.6-.4-.7-.6-1.5-.4-1.8.2-.3.6-4.4 1-9.1.3-4.6.7-10.4.9-12.9.3-2.5.7-8.2 1-12.8.4-4.6.8-10 1.1-12 .2-2 .7-6.6 1-10.2 2-23.1 5.8-36.9 11.3-40.3 3.2-1.9 5.1-2.1 8.9-.6zm94.4 55.6c3.2 1.9 6.5 8.2 7.5 14.2.7 4.6-.2 5.1-5.3 2.9-5.1-2.3-8.7-7.1-9.9-13.3-1-5.5 2.1-7.1 7.7-3.8zM321 156.5c2.1 1.4 4.8 5.8 5.5 8.9.3 1.4.8 3.8 1.2 5.3.9 3.7.9 24.9 0 29.3-1.8 8.4-6.2 17.3-10.9 22.1-5 5.2-13.8 10.3-19.6 11.4-1.2.2-2.6.6-3 .9-.5.3-4.3.8-8.4 1.2l-7.6.6.4-6.8c1.6-28.2 9.9-52.4 22.9-66 8-8.6 13.9-10.6 19.5-6.9zm-70.1 3c3 .9 4 6.4 2.1 11-2.8 6.5-10.6 11.1-20.8 12.2l-5.5.6.6-4.7c1.1-7.5 7.6-16 14.7-18.9 3.3-1.4 5-1.5 8.9-.2zm221.9 36.2c1.6 4.8-1.2 10.6-8.8 18.2-6.2 6.2-17.4 14-18.6 12.8-.7-.7 4-13 7.1-18.3 4.3-7.4 12.8-15.4 16.4-15.4 2.3 0 3.1.6 3.9 2.7zM368.5 320.4c4.4.3 9.8.9 12 1.2 2.2.4 4.6.7 5.3.7 2.6.1 1 1.5-5.5 4.8-3.8 1.9-6.9 3.7-7.1 4.1-.2.5-1 .8-1.7.8-.8 0-3.3 1-5.7 2.2-12.2 6.4-31 12.9-41.8 14.6-7.1 1.1-26.1.6-30.9-.7-5.4-1.5-10.4-6.1-9.4-8.8 3.1-8.7 29.1-18.2 51-18.7 2.9 0 5.3-.3 5.3-.6 0-.7 18.6-.4 28.5.4z"/><path d="M559.5 206.5c-4.7 4.6-2.5 12.4 3.9 14.1 5.4 1.3 11.4-4.6 10-10-1.6-6.6-9.2-8.9-13.9-4.1zM584.3 220.5c-7.5 5.3-1.7 17.3 7.3 15.1 3.1-.8 6.5-6.2 5.9-9.6-1-5.6-8.5-8.8-13.2-5.5zM607.5 238.2c-3.1 1.8-4.4 4-4.5 7.7 0 7.4 9 10.8 14.2 5.3 6.5-6.7-1.7-17.6-9.7-13zM216.9 258.1c-2.9 3.1-3.1 4.6-1.4 9.8.7 2.2 4.8 4 8.7 3.9 7.5-.2 9.6-11.8 2.8-15.3-4.3-2.2-6.9-1.8-10.1 1.6zM628 257.7c-2.4.6-5.3 5.3-5.2 8.6.2 6.3 9.4 10.6 13.7 6.4 6.7-6.8.8-17.3-8.5-15zM198.6 279.1c-1.4 1.1-2.8 3.5-3.2 5.3-1.5 8.3 8.7 13.3 14.4 7 6.5-7.2-3.6-18.3-11.2-12.3zM645.8 279.6c-7.3 3.8-4.2 15.4 4.2 15.6 6.7.2 11-8.8 6.5-13.7-1.3-1.4-2.8-2.5-3.2-2.6-.4 0-1.8-.2-3-.3-1.1-.1-3.2.3-4.5 1zM183.2 302.1c-5.5 2.1-6.6 11.3-1.6 14.6 8.9 5.8 18.1-5.5 10.4-12.7-3-2.8-5.1-3.3-8.8-1.9zM739 317.8c-5.7 2.8-12.1 7.6-17.8 13.4-6.2 6.3-17.2 20.8-17.2 22.5 0 .7-.6 1.3-1.3 1.3-1.4 0-2-3.7-.8-4.5 1-.6-.5-9.7-2.6-15.3-1.7-4.6-7.7-10.6-12.7-12.7-4.4-1.9-20.5-1.2-28.1 1.3-5.8 1.8-5.9 1.9-3 2.6 5.3 1.3 5.6 1.5 6.9 4.7 1.7 4 1.3 21.6-.9 38.6-.2 1.8-.7 6.7-1 11-.4 4.3-.8 9.4-1 11.3-.8 7.3-1.8 25.8-1.9 33.4-.1 7.8-.1 7.9-4 11.8-4.2 4.1-8.3 6.4-12.9 7.2-4.5.8-5.1-2.3-2.7-13.7.5-2.9 1.2-6.1 1.4-7.2.2-1.1 1.9-7.2 3.6-13.5 1.7-6.3 4-15.2 5-19.7 2-9.3 1.8-9.8-5-16-5.9-5.5-13.1-7.4-24-6.4-1.3.1-1.5 2.6-1.6 15.9-.2 14.7-.7 24.4-1.8 31.9-.6 4.3-12.2 20-20.8 28.4-9.9 9.6-16.8 11.1-22.8 4.7-4.1-4.3-5.1-8.3-5.4-21-.2-8.7.1-10.9 2.8-19 7.3-21.6 21-36.1 39.6-41.9 6.1-2 9.7-2.4 19.8-2.4h12.3l-.2-6.7c-.3-9.4-4.1-17.3-10.4-21.1-12.1-7.6-29.6-5.9-45.5 4.4-7.9 5.1-20.2 17.5-25.7 25.9l-5 7.5c-1.2 1.5-4.9 9.4-7.2 15.2-5.9 15.2-7.6 29.6-5.2 44.6 5.2 31.4 26.9 45.9 47.6 31.7 6.1-4.2 12.5-10.9 17.8-18.7 2.3-3.4 4.4-6.3 4.7-6.3.3 0 1.2 2.1 1.9 4.7 1.5 5.7 5.1 10.7 9.3 12.9 9.4 4.9 23.9-.2 34.1-11.9l3.7-4.3 4 3.7c6.2 5.9 17.5 7.2 28 3.1.8-.3 1.7-.6 2-.7 2.3-.8 6-2.5 6-2.8 0-.2-2.2-1.8-4.9-3.5-6.8-4.2-8.9-8.5-8.9-18.3 0-21.5 14.9-56.9 29.7-70.6 5.6-5.2 9.4-6.8 11.2-4.6 1.5 1.7 2 15.1.8 22.1-1.2 7.4-1.9 11.3-2.9 16.7-1.2 6-1.7 9.4-2.6 16-.3 2.7-.8 5.9-1 7-.2 1.1-.4 5.4-.5 9.5-.1 16.8 2.8 25 10.1 28.7 8.3 4.2 21.7 3.1 32.8-2.6 2.3-1.2 4.2-1.9 4.2-1.7 0 .3 1.9-.3 4.3-1.3 12-5.2 17.8 1.1 18 19.4.1 7.8-.8 20.5-1.8 25.5-3.1 16.3-14.8 29.2-32.8 36.4-12.4 4.9-22.1 7-43.2 9l-4 .4.1-6.7c0-6.5-1.9-15.4-3.8-17.9-.6-.6-.7-1.2-.2-1.2.5 0 .4-.4-.1-.8-.6-.4-2.1-2.1-3.3-3.8-3.2-4.6-10.8-9.1-18.2-10.8-6.4-1.5-21.5-1.5-30-.1-11 1.9-33.6 8.9-45.5 14-1.6.7-7.9 3.4-14 6-6 2.6-13.6 6-16.9 7.6-3.2 1.6-6.1 2.7-6.5 2.5-1.3-.8-22.9-3.1-47.6-5.2-28.6-2.3-67.2-1.9-93.5 1.1-6.8.8-14.6 1.6-19 2.1-2.5.3-5.6.7-7 .9-6.1 1-16.8 2.7-19.7 3.1-1.8.2-6.5 1.1-10.5 2-4 .8-8.4 1.8-9.8 2-1.4.3-4.1.9-6 1.4-1.9.5-4.6 1.1-6 1.4-9.9 1.8-43.1 13.8-43.8 15.7-.2.5-1 .9-1.8.9-2.1 0-13.9 8.4-18 12.7-4.5 4.9-7.1 9.8-7.9 15.4-.4 2.4-.7 4.6-.8 4.9-.1.3.5 2.6 1.2 5.3 3.2 11.2 15 18.9 34.1 22.1 10.2 1.8 29.4 2.2 42.5 1 3.9-.3 9-.7 11.5-.9 2.5-.2 4.5-.4 4.5-.5 0-.1 1.6-.3 3.5-.5 11.1-1 45.5-7.8 51-10.2.8-.3 2.3-.8 3.2-.9 6.4-1.3 51.1-17.7 53.6-19.6.6-.6 1.2-.8 1.2-.5 0 .3 5.3-1.8 11.8-4.7 6.4-2.9 13.2-5.9 15.1-6.7 1.9-.8 15.4-7.3 30.1-14.5l26.7-13.2 10.4 1.8c5.7 1 13.1 2.1 16.4 2.5 3.2.3 6.2.8 6.5 1 .3.2 3.4.6 7 1s7.2.8 8 1c3.1.6 14.5 1.8 27 3 10 .9 29.2 1.8 41.5 1.9 15.4.2 14.8-1.1 7.1 15.1-5.4 11.3-12.6 22.5-18 28.2l-3.1 3.2-6.5-4.8c-6.9-5.1-15.1-9.9-18.5-10.8-4.3-1.2-16-1.1-20.2.2-10.7 3.2-17.1 10.8-18 21.4-1 10.9 1.6 16.6 9.2 20.1 10.3 4.8 31.8-1 47.1-12.7 2.8-2.1 3.6-2.3 4.6-1.1 1.7 1.7 6.8 9.6 6.8 10.3 0 .7.2.9 7.7 8.7 12.2 12.6 30.8 17.8 47.8 13.3 12.3-3.3 30.5-17.6 38.8-30.7 3.7-5.8 8.2-17.5 9.3-24.4.3-2.2.8-4.2 1-4.5.4-.8 1.5-7.9 1.8-12.1.1-1.5.5-3 .8-3.3.6-.7-.7-7.3-1.6-8.2-.7-.7-1.2.7-2.5 8.2-.6 3.5-3.2 10.4-6.3 16.5-12 24-34.5 38.3-57.8 36.7-10.1-.7-17.5-3.7-29.4-12.3-9.4-6.7-11.1-8.9-8.1-10 .8-.4 1.5-1 1.5-1.6 0-.5 2.5-4.3 5.5-8.3 3-4.1 5.5-7.7 5.5-7.9 0-.2 1.8-3.1 4.1-6.5 4.6-6.9 9.9-17.4 9.9-19.6 0-2.1 1.1-2.5 9.2-3 20.3-1.4 31.7-3.3 48.3-7.8 8-2.2 24.6-9.5 33.2-14.5 15.1-8.9 30.3-25.2 37.5-40.2 6-12.6 6.3-15.6 3.1-25.5-1.9-5.8-11-15.5-18.3-19.6-10.4-5.8-24.9-8.6-33.5-6.6-21.1 4.8-23 4-26.1-11.3-1.2-6.2-1.2-23.4 0-35.5 4.6-45.8 4.8-54.7 1.3-62.5-4.1-9.1-12.3-12.3-20.7-8.2zm-52.5 180.4c7.9 2.4 13.6 7.6 16.3 15.1 1.7 4.8 2.5 19.4 1.1 20.3-1.8 1.1-31.8.4-51.4-1.2-13-1-14.8-1.2-19.5-1.8-2.5-.3-7-.8-10-1.1-3-.3-6.8-.8-8.5-1-1.6-.2-5.9-.7-9.3-1-13.1-1.4-13.1-1.4 1.3-8.7 11.9-6 27.1-12.9 32-14.4 24.1-7.7 37.2-9.4 48-6.2zm-182 30.2c10 .8 15.3 1.4 18.3 2 1.5.3 4.8.8 7.4 1.1 2.6.3 6.9.9 9.5 1.4 2.6.5 5.1.7 5.5.5.5-.3.8-.1.8.4 0 .4-3.5 2.4-7.7 4.2-4.3 1.9-10.5 4.6-13.8 6.1-9.3 4.2-46.6 20-47.2 20-.2 0-2.7 1.1-5.7 2.4-9 4-39.5 15.1-49.2 17.9-8.5 2.5-10.2 2.9-16.4 4.1-1.4.3-3.4.7-4.6.9-1.2.2-4.5.7-7.5 1.1-3 .4-6.5.9-7.9 1.1-5.4.9-34.8 1.1-40 .3-10.9-1.7-13.4-2.3-21-4.5-4.3-1.3-11.6-6.3-12.7-8.6-.6-1.3-.7-3.2-.2-4.4 1.3-3.5 8.2-9.7 14.5-12.9 3.2-1.7 6.6-3.5 7.4-4.1 2.4-1.8 33.2-12.8 38.6-13.8 1-.2 3.9-.9 6.4-1.6 2.5-.7 5.3-1.4 6.2-1.6 1-.2 2.7-.6 3.8-.9 1.1-.3 2.9-.7 4-1 5.5-1.4 25.4-5.3 30.5-6 2.2-.4 4.7-.8 5.5-1 .8-.2 3.5-.7 6-1 2.5-.3 5.9-.8 7.5-1.1 1.7-.3 6.3-.7 10.4-.9 4.1-.3 7.5-.6 7.7-.7.5-.6 36.5-.1 43.9.6zm141.4 59.1c3.7.6 6.9 2.6 14.9 9.3 6.2 5.2 6.1 5.4-3.7 11.2-9.1 5.4-16.3 7.7-23.6 7.4-3.3-.1-6.1-.3-6.2-.4l-1-.5c-5.3-1.4-9.3-5.8-9.3-10 .1-3.9 2.3-10.1 4.7-12.7 4.2-4.7 12-6.1 24.2-4.3z"/><path d="M184.1 340.9c-5.7 2.3-14 9.6-19.5 17.4-2.4 3.4-10.8 19-18.6 34.7-7.8 15.7-14.9 30-15.8 31.7-2 4.1-2.8 3.3-3.7-3.7-.7-5.7-1-7.7-2-12.3-.3-1.5-.7-3.7-.9-5-.3-1.2-1.2-5.1-2.1-8.7-.8-3.6-1.7-7.2-1.9-8-2.7-10.6-10.4-26.5-15.5-31.7-6.8-6.9-13.3-7.8-22.2-3-5.5 2.9-14.5 11.7-20.8 20.2-2.8 3.8-5.5 7.4-5.9 8-4.3 5.6-23.2 40.4-23.2 42.7 0 .6-.6 1.9-1.4 2.7-.7.9-2.1 3.8-3.2 6.6-1 2.7-2.4 6-3.2 7.2-.8 1.3-1.1 2.3-.7 2.3.4 0 .3.6-.2 1.2-.6.7-2.8 6-5 11.8-2.2 5.8-4.4 11.4-4.8 12.5-.5 1.1-.9 2.2-1 2.5 0 .3-1.3 4.1-2.7 8.5-9.2 28.2-7.9 39.1 5.3 43.1 4.5 1.4 15.9 1.1 21.9-.6 2.5-.7 4.6-1.2 4.7-1.1.2 0 3.1-1.4 6.5-3.2 6-3.1 8.5-5.7 5.5-5.7-4.7 0-5.6-19.7-2.1-44 1.2-7.8 1.5-9.8 3-17.5 5.7-28.9 26.1-82.5 31.5-82.5 2.2 0 9.3 19.8 11.3 31.5.6 3.4 1.6 8.9 2.1 11.5.3 1.4.8 4.5 1.1 7 .3 2.5.7 5.2.9 6 .4 1.4.7 3.9 2 16.5.3 2.7.7 6.5 1 8.4.2 1.9.7 6.9 1 11.1.3 4.2.7 9.6 1 12.1.2 2.4.6 8 1 12.4.3 4.4.7 10 1 12.5.2 2.5.7 7.6 1 11.5.3 3.8.7 8.1 1 9.5.2 1.4.7 4.3 1 6.5 1.7 12.3 6.8 19.4 16 22.1 6.2 1.7 10.9 1.3 20.5-1.8 12.3-4 17-6.5 17-9.1 0-1.3-.4-2.7-.8-3.3-1.4-1.6-4.5-12.4-5.6-19.4-.3-1.9-.7-4.4-1-5.5-.8-4.3-1.8-18.2-1.8-26.5 0-12.3 1-24.2 3.1-37 .6-3.6 1.3-8.3 1.7-10.5.5-3.3 3-15.2 5-24 .3-1.1.7-2.9.9-4.1 1-4.5 6.4-22.2 8.3-27.3 2.7-6.8 6.6-12.5 9.7-13.9 2.1-1 2.5-.8 3.9 2.2 1.6 3.5 2.2 6.1 3.1 14.6.8 6.8 1.2 10.2 2 16 .6 4.5.9 7 2 18.5.4 3.3.8 7.1 1 8.5.2 1.4.7 5.2 1 8.5.3 3.3.7 7.1 1 8.5.2 1.4.6 6.1 1 10.4.4 4.3.8 8.8 1 9.8.2 1.1.7 4.7 1 8.1.4 3.4.8 7.8 1.1 9.7.4 3.4 1.1 10.1 2 18.5.3 2.2.6 5.3.8 7 .2 1.6.7 6.1 1.1 10 .4 3.8.9 7.7 1 8.5.3 1.4 1 7.9 2 17.5.2 2.2.6 5.6.9 7.5.3 1.9.8 5.3 1 7.5 2.2 19.2 7.2 35.2 15.4 49 15.5 26.2 36.4 35.9 60.7 28.1 12.8-4.1 23.5-11.6 15.5-10.9-14.5 1.3-20.8-.7-31.9-10.2-3.2-2.7-8.8-11.6-11.2-17.9-1.7-4.2-4.9-18.6-7.3-33.1-.3-1.7-1-5.7-1.6-9-.6-3.3-1.3-7.6-1.5-9.5-.3-1.9-.8-4.9-1.2-6.5-.3-1.7-.7-3.9-.9-5-.2-1.1-.5-3.4-.8-5-.3-1.7-.7-4.5-1-6.3-.3-1.7-.8-4.4-1.1-6-.2-1.5-.7-4.3-1-6.2-.4-1.9-.8-4.9-1.1-6.5-.2-1.7-.6-4.4-.9-6-1.5-8.6-1.8-10.2-2.1-12.5-.3-2.5-2.9-18.2-3.8-23-.4-2.3-1-6.6-2.2-15-.3-1.9-.7-4.6-.9-5.9-.2-1.3-.7-4.5-1-7-.4-2.5-1-6.9-1.5-9.6-.5-2.8-1.2-7.3-1.5-10-.3-2.8-.8-6.1-1-7.5-.2-1.4-.6-5.2-1-8.5-1.9-17.8-5.8-30.3-12.7-40.3-4.7-6.8-5.8-8-11-11.3-5.8-3.7-12.4-4.4-18.7-2z"/><path d="M517 356.9c-7.1 2.5-11.9 5.8-19.5 13.5-11.1 11.2-13.5 14.7-22.6 32.3-2 4-3.9 7-4.1 6.7-.5-.4.1-4.5 1.9-12.9.8-3.8.8-16.9 0-21.6-1.6-9.8-7.5-17.4-14.2-18.5-3.7-.5-5.4-.2-9.7 2.1-10.4 5.4-22.1 19.1-30.8 36l-5 9.6-.1-6.1c-.1-3.3-.2-6.3-.3-6.8-.1-.4-.6-2.3-1-4.2-1.9-7.9-7-13.9-13.9-16.3-8.3-2.8-31.3-.1-29.2 3.4.4.5 1.4.9 2.4.9 2.8 0 5 3.2 6 8.6.9 4.5.6 28.9-.3 35.9-.2 1.6-.7 5.7-1 9-.4 3.3-.8 7.6-1.1 9.5-1.1 8.9-1.9 21.4-1.8 30.5.1 9.1-.1 10.3-2.2 13.1-6.4 8.4-14.3 13.8-19.3 13.2-2.6-.3-2.7-.4-2.5-6.8.1-3.7 2-13.1 4.3-22 2.2-8.5 4.3-16.3 4.5-17.3.2-1 .6-2.6.9-3.5.3-.9.8-3.1 1-4.7.3-1.7.8-4.2 1.1-5.6.9-3.9-4.3-10-11.9-14-4.4-2.4-11.9-3.4-17.1-2.5-3.2.6-3.5.9-2.8 3.4 1.6 6.2-.7 47-2.8 49.6-.5.6-2.8 3.6-5.1 6.6-13.3 17.4-24.6 25.3-31.2 21.7-7.5-4.2-9.7-9.1-10-23.2-.6-21.6 13.4-46.7 31.5-56.8 10-5.6 16.6-7.1 30.9-7.2h12.5l-.2-6.7c-.2-10.9-5.2-19.1-13.9-22.9-5.9-2.7-16.7-3.5-23.6-1.9-4.8 1.1-18.6 7.3-19.8 8.9-.3.3-2.1 1.8-4 3.2-17.4 13.1-34.3 40.5-37.7 61.4-.9 5.3-.9 25 0 29.8 3.1 16.6 12.4 30.2 23.4 34.1 12.7 4.5 26.3-2.5 39.7-20.5l4.3-5.7 1.8 5.4c2.4 7.2 7.4 12.1 13.1 13 11.4 1.7 21.4-3.3 32.2-16.1 1.7-2.1 3.2-4.2 3.2-4.7 0-.4.7-.8 1.5-.8s1.5.6 1.5 1.4c0 2 5 7.2 8.9 9.1 4.7 2.4 17.5 1.6 24.9-1.5 2.8-1.3 5.2-2.6 5.2-3 0-.4-1.2-1.6-2.7-2.6-3.8-2.4-6-5.3-7.4-9.4-1.5-4.2-1.8-14.2-.6-18.8.4-1.7 1-4.4 1.2-6 2.3-15.2 8.8-36 16-50.7 4.6-9.5 10.6-17.5 13.1-17.5.8 0 1.4-.5 1.4-1 0-.6 1.1-1 2.4-1 2.2 0 2.5.5 3.1 5.5 1 7.3 1 15.6 0 24-.4 3.8-.9 8.3-1 10-.4 3.8-1.4 11.9-2.1 16.5-1 7.5-1.3 31.8-.3 37 2.6 14.4 6.7 18.2 19.8 18.5 9.4.3 18.7-2.3 24.1-6.5 2.2-1.8 4-3.5 4-4 0-.4-1.4-1.3-3-2-2.7-1.1-10.2-9-8.6-9 .4 0 0-1.2-.7-2.8-2.1-4-2.9-10.2-3.2-23.7-.5-17.3 3-29.1 13.8-46.2 7.3-11.9 17.6-19.6 20.7-15.8 1.1 1.3 1.3 10.7.6 20-.2 2.2-.7 8.3-1 13.5-.4 5.2-.9 11.1-1.1 13-1.6 15.7-2.3 41.5-1.2 47.2 2.4 12.2 13.5 16.6 29.8 11.8 10.2-3.1 21.6-10 20.3-12.2-.6-.9-5.8-3.2-6-2.6-.1.2-1.7-1.3-3.7-3.3-7.8-7.8-10.2-20.4-8.2-43.9.2-2.5.6-8.1 1-12.5.3-4.4.8-9.6 1-11.5 2.1-19 2.4-33.7.7-39.5-3.4-11.9-10.3-16.1-20.2-12.6zM167.7 576c-1.5 1-4.7 6-4.7 7.5 0 1.6 3.3 6.6 4.9 7.5 6.1 3.2 13.4-1.7 12.4-8.2-.2-1.8-1.2-4.1-2.2-5.1-2.1-2.2-8-3.1-10.4-1.7zM520.4 586.6c.4 2.2.9 5.3 1.2 7 .5 2.8.1 3.4-4.6 6.9-2.8 2-4.9 3.9-4.7 4.1.2.2 3 .5 6.1.5 3.3.1 5.9.7 6.1 1.3.2.6.9 3.8 1.6 7.1l1.1 5.9 2.6-6.4c1.4-3.6 3-6.8 3.6-7.2.5-.4 4.1-.6 7.8-.6 3.8 0 7.1-.1 7.3-.4.3-.3-2.2-2.5-5.5-4.9-5.7-4.2-6.9-5.7-5.3-7.3 1-.9 4.2-9.6 3.6-9.6-.2 0-2.5 1.6-5 3.5s-4.9 3.5-5.3 3.5c-.4 0-2.5-1.3-4.6-2.8-6.7-4.8-6.6-4.8-6-.6zM183.2 601.1c-4.8 1.8-6.3 5.4-4.8 11.1 1.1 3.8 6.3 6.1 10.5 4.7 4.3-1.5 6.3-5.6 5-10.3-1.4-4.9-6-7.3-10.7-5.5zM568.6 607.8c-.5.9 5 7.6 12.4 15.2 5.6 5.7 12.4 14.3 10.5 13.3-3.5-1.9-21.5-10.3-22-10.3-.2 0-3.3-1.4-7-3.1-10.8-5-10.6-4.4 4.8 12.4 14.9 16.2 16.3 17.7 17 17.7 1.5 0 .5-1.7-3.9-6.5-4.2-4.6-9.9-10.7-17.9-19.4-3.8-4.1-2.7-3.8 16 4.9 14.7 6.9 19.5 8.8 20 8 .3-.4-1.4-2.8-3.8-5.2-5.5-5.8-21.3-23-23.7-25.7-1-1.2-2.1-1.8-2.4-1.3zM375 621.3l-3.5 6.2-4.5-.3c-2.5-.2-5.3-.5-6.2-.8-3-.9-2 1.1 2.2 4.2 2.2 1.6 4 3.6 4 4.4 0 .8-1.3 3.9-2.9 6.7-1.6 2.9-2.7 5.3-2.3 5.3.3 0 2.9-1.4 5.9-3 2.9-1.7 5.8-3 6.5-3 .7.1 3.8 2.3 6.8 5 3 2.8 5.8 5 6.2 5 .3 0 0-2-.7-4.4-.7-2.4-1.6-6-1.9-7.9-.5-3.4-.4-3.5 4.4-5.6 4.2-1.8 7.7-4.4 5.3-4-.4.1-1 0-1.3-.1-.3-.1-2.3-.3-4.5-.4-2.2-.2-4.5-.4-5.2-.5-.6 0-1.7-2.5-2.3-5.4-.7-2.8-1.5-5.7-1.9-6.3-.3-.7-2.1 1.5-4.1 4.9zM449.1 622.7c2.3 10.4 2.4 9.9-3.1 14l-5.1 3.8 6 .3c6.5.3 6.3.1 7.6 7.7 1.1 6.2 1.6 6.2 4.4-.6l2.7-6.4 8.3-.5 8.4-.5-6.1-4.3c-6.7-4.7-7-5.6-3.5-12.5 1.9-3.7 1.3-5.2-1.2-3-2.8 2.6-7.2 5.3-8.5 5.3-.7 0-3.1-1.6-5.4-3.5-2.4-1.9-4.5-3.5-4.8-3.5-.3 0-.2 1.7.3 3.7zM199.4 624.2c-3 1.4-5.5 6.2-5 9.5.6 3 4.8 7.3 7.1 7.3 2.4 0 6.8-2 8.1-3.8 1.9-2.4 1.7-7.6-.3-10-2.4-2.7-7.3-4.2-9.9-3zM549.5 626c-.3.6-1.4 1-2.4 1-2.7 0-8.1 5.9-8.1 8.8 0 2.6 3.9 10.2 5.2 10.2.4 0 .8.4.8 1 0 .5.7 1.8 1.5 2.7 4.2 5.2 10.5 13.7 10.5 14.4 0 .4 1.6 1.4 3.5 2.3 4.4 2.1 7.6 1.3 11.9-2.9 4.9-4.7 4.3-8.4-3.1-18.3-3.2-4.2-6.2-8.2-6.8-8.8-.5-.6-2.1-2.7-3.5-4.6-2.6-3.9-8.5-7.4-9.5-5.8zm6 4.4c4.2 4.4 17.6 23.1 17.9 25.2.7 3.4-1.1 6.2-5.4 8.4-2.4 1.2-4.2 1.5-5.7.9-1.2-.4-6.5-6.5-11.8-13.5-7.5-10.1-9.4-13.3-9.1-15.3.2-1.4.5-2.9.5-3.4.1-.4 1.6-1.6 3.4-2.7 3.3-2.1 8-1.9 10.2.4zM525.7 640.8c-3.9 2.4-4.9 5.7-3.3 10.7 1.6 5.1 6.8 8.5 12.6 8.3 14-.4 23.6 10.9 14.8 17.5-3.7 2.7-7.4 2.5-10.9-.9-1.6-1.6-2.9-2.2-2.9-1.5 0 .8 1.2 2.5 2.7 3.8 2.2 2.1 3.3 2.4 6.6 2 7.4-1 11.1-7.2 8.3-13.9-2.6-6.1-7.4-8.7-17.5-9.3-6.7-.4-9-1.5-11.4-5.7-2.3-4-2.1-5.5.9-8.3 3.4-3.2 6.4-3.2 9.8 0 3 2.8 3.6 3 3.6 1.5 0-.6-1.2-2.2-2.6-3.5-3.1-2.9-6.7-3.1-10.7-.7zM217.3 646c-8.2 3.3-5.5 15.9 3.5 16 8.4.1 11.5-11.7 4.1-15.5-3.2-1.7-4.4-1.8-7.6-.5zM629.3 646.8c-1.3.2-3.2 1.5-4.3 2.9-6 7.6 3.9 18 11.4 11.9 7-5.7 2-16.2-7.1-14.8zM310.7 649.3c-2 1.8-4.7 6.4-6.2 10.7-.1.3-1 2.3-2 4.5s-1.9 4.2-2 4.5c0 .3-1.1 2.5-2.4 4.8-3.1 6-3 9.7.2 13 3.6 3.6 9.5 3.7 13.1.3 2.3-2.2 3.5-5.1 2.1-5.1-.3 0-2.1 1.6-4 3.5-3.2 3.1-3.7 3.3-6.5 2.3-3.8-1.3-6-4.3-5.4-7.3.2-1.3 1.9-5.6 3.8-9.7 1.8-4 4.5-9.8 5.8-12.8 3.2-7.1 5.1-9 9.3-9 4.4 0 6.9 3.4 6.3 8.5-.2 1.9-.1 3.5.4 3.5 1 0 2.4-3.1 2.2-5-.1-.8-.2-2-.3-2.6 0-.6-1.2-2.3-2.6-3.8-3.1-3.4-8.4-3.6-11.8-.3zM512 649.6c0 .3 2.1 4.5 4.7 9.2 2.5 4.8 6.8 13 9.6 18.2 5.2 10 6.7 12.3 7.4 11.6.5-.5-7.1-15.7-9.9-19.9-1.1-1.5-1.6-2.7-1.3-2.7.3 0-.2-1.2-1.2-2.8-1.1-1.5-3.2-5.3-4.9-8.4-2.5-5-4.4-7.2-4.4-5.2zM332.9 654.2c0 .2-.2 1-.4 1.8s-2.7 8.5-5.5 17c-6.3 18.8-6.3 18.6-4.5 22 2.5 4.8 10.9 6.1 14.5 2.2 1.4-1.4 3.6-6.4 4.5-10.2.1-.3.4-1.2.7-2 1.3-3.2 6.2-17.7 7.4-21.8.9-2.9 1-4.2.3-4-.9.3-8.9 21.9-10.4 27.8-.9 3.8-2.6 7-4.6 8.9-4.3 3.9-12.5 0-11.5-5.5.3-1.3 2.8-9.2 5.6-17.6 5.9-17.3 6.3-18.8 4.9-18.8-.5 0-.9.1-1 .2zM499.3 657.7c.2 1.6 1.2 6.4 2.2 10.8.9 4.4 1.8 8.4 1.9 9 1.8 9.4 5.1 21.5 5.9 21.5.9 0 .7-2.7-.8-10.5-.6-2.8-.3-3.1 3.7-4.8 4.2-1.7 4.2-1.7 6.3.5 1.1 1.3 2.8 3.5 3.8 5 1.9 3.1 4 3.8 3 1-.4-.9-.9-1.9-1.3-2.2-.7-.6-12.1-16.4-19-26.4-4.9-7.1-6.5-8.1-5.7-3.9zm10.1 13.9c3.2 4.7 5.6 8.8 5.4 9-.2.2-2 1-4 1.8l-3.6 1.6-1.7-7.3c-1-3.9-1.9-8.2-2-9.4-.2-1.2-.6-2.7-1-3.2-.3-.6-.2-1.1.3-1.1s3.5 3.9 6.6 8.6zM488 660.4c0 .2-.5 2.8-1 5.7-.6 3-1.3 6.7-1.5 8.4-1 5.7-1.7 8.5-2.1 8.5-.3 0-4.1-3.7-8.4-8.2-4.4-4.5-8.2-8-8.5-7.7-.3.3.1 2.5.9 4.8.9 2.3 1.6 4.5 1.6 4.9 0 .4 1 3.8 2.1 7.7 5.4 18.7 7.3 24.5 8.1 24.5 1.2 0 1-1-1.3-8.1-1.2-3.5-2.3-7.3-2.5-8.4-.5-3-5.2-18.4-6-19.8-.9-1.5 6.4 5 9 8.2 2.6 3.1 5.8 6.1 6.6 6.1.4 0 1.3-3.5 2-7.8.7-4.2 1.5-9 1.9-10.7.7-2.9.8-2.8 2 2 .7 2.8 1.8 6.3 2.4 8 .6 1.6 1.2 3.6 1.3 4.2.1.7 1.1 4.1 2.2 7.5 1.1 3.5 2.3 7.8 2.7 9.5.4 1.8 1.1 3.3 1.6 3.3 1.2 0 1.2-2.2-.1-5.5-.5-1.4-1.2-3.6-1.4-4.8-.3-1.2-.9-3.6-1.5-5.2-2-6.1-4.9-15.2-6.6-21.3-1-3.4-2.2-6.2-2.7-6.2-.4 0-.8.2-.8.4zM352.2 680.2c-6.7 25.2-6.7 25.2-5.4 24.4 1-.6 3.4-7.8 4.6-13.6.3-1.4 1.7-6.8 3.1-12 1.4-5.2 2.7-10.1 2.9-11 .2-.8.7-2.3 1.1-3.3.4-1 .3-2.3-.2-2.8-.6-.6-2.8 6.2-6.1 18.3zM366 667c-5.2 5.5-4 11.3 3.9 19.9 5.4 5.8 6.8 10.9 4.4 15.9-1.9 3.9-4.9 5-9.9 3.8-2.6-.7-5.3-5.1-4.7-7.8.2-.9-.1-1.9-.6-2.3-1-.6-1.6 2.8-1.1 6.5.3 3 4.7 6.3 8.7 6.5 5.3.3 9.1-2.1 10.4-6.7 1.7-6.5.6-9.3-7.7-19.4-4.6-5.7-5.1-9.2-2-13.9 3.5-5.4 13.2-1.7 12.1 4.5-.3 1.7-.1 3 .5 3 .5 0 1.1-.7 1.1-1.5.1-.8.2-2.1.3-2.8.3-1.7-2.5-6.5-4.3-7.2-.8-.3-2.9-.8-4.8-1.1-2.8-.5-3.8 0-6.3 2.6zM238 666.3c-7.7 3.9-5.9 14.2 2.7 15.4 3.6.5 4.5.2 6.8-2.2 2.3-2.2 2.7-3.3 2.2-6.6-.9-6.5-6.1-9.5-11.7-6.6zM606.8 667.6c-8 4.2-5.3 15.6 3.7 15.6 8.5 0 11.8-11.3 4.4-15.2-3.3-1.8-5.3-1.9-8.1-.4zM388.9 667.5c-.1.3-.2.8-.3 1.2-.3 1.1-1.6 10-2.1 14.3-.2 1.9-.7 5.3-1 7.5-.7 4.1-.9 5.9-2 13.5-.4 2.4-.8 4.7-1 5-.2.3 0 1.2.5 2 .9 1.5 1.5-.1 2.4-7 .3-1.9 1-6.7 1.6-10.5 2.3-15.9 3.4-26.5 2.6-26.5-.3 0-.7.2-.7.5zM396.6 671.2c-.2 1.3-.4 3.2-.4 4.3 0 1.1-.3 4.9-.6 8.5-.3 3.6-.8 9.9-1.1 14-.3 4.1-.7 9.2-.9 11.2-.1 2.3.2 3.8.9 3.8.6 0 1.1-1.7 1.2-3.8.2-5.1 1.8-27.4 2.2-32.2.2-2.1 2 2.3 8.1 20 5.8 17.2 8 21 8.1 14.5 0-2.2.2-6.3.5-9 1.9-21 2.4-32.5 1.4-32.5-.6 0-1.1 1.2-1.1 2.7-.4 6.2-1.7 24.4-2.3 30.6-.2 1.5-.5 2.9-.7 3.2-.4.4-5.5-13.7-11.3-31.2-2.2-6.6-3.3-7.7-4-4.1zM426.3 669.8c-4.9.4-4.7-.5-4.4 14.7.1 4.9.3 13.7.4 19.5l.2 10.5h7.5c7.8.1 10-.2 10-1.4 0-.4-3.6-.5-8-.3l-7.9.3-.1-5.8c0-10 0-10.6.5-11.1.2-.3 2.9-.5 6-.5 3-.1 5.5-.4 5.5-.9 0-.4-2.7-.8-6-.8-5.5 0-6-.2-6.1-2.3-.6-15.9-.4-19.7 1.1-19.8.8-.1 4.3-.1 7.8-.2 3.4 0 6.2-.4 6.2-.9 0-.4-.3-.8-.7-.9-3.4-.3-8.5-.3-12-.1zM259.1 685.9c-4.1 3.8-4.2 8.2-.3 12.1 2.2 2.1 3.6 2.7 6 2.4 4.1-.5 7.2-3.3 7.8-7.3.6-3.9-.9-6.7-4.6-8.6-4.1-2.1-5.4-1.9-8.9 1.4zM583.2 685.3c-7.8 5.5-3.2 17 6.2 15.3 6.6-1.3 8.7-11.3 3.1-15-1.4-.9-2.5-1.4-2.5-1.1 0 .3-.8.1-1.8-.4-1.4-.8-2.6-.5-5 1.2zM282.7 701.4c-3.4 3.7-3.3 8.1.2 11.7 5.8 5.8 14.1 1.9 14.1-6.7 0-6.5-9.8-9.9-14.3-5zM559.7 700.1c-1.8 1.1-4.4 5.7-4.2 7.4.3 2 2.4 6.3 3.3 6.9.5.3 2.5.8 4.3 1.1 8.4 1.3 12.8-10 6-15.2-1.9-1.5-7-1.6-9.4-.2zM311.1 713.1c-5.6 2.2-6.9 9-2.6 13.4 5.5 5.4 14.5 1.4 14.5-6.5 0-2.7-5.2-8-7.7-7.9-1 0-2.9.5-4.2 1zM535.3 712.7c-5.1 1-7.9 8.5-4.8 13 3.6 5.1 12.4 4.3 14.5-1.3 2.6-6.8-2.6-13-9.7-11.7zM338.4 722.4c-7 3.1-6.6 13 .7 15.5 7.2 2.5 13.4-4.9 9.9-12.1-.7-1.4-2-2.8-2.9-3.1-.9-.3-2.3-.7-3.1-1.1-.8-.3-2.9.1-4.6.8zM506.5 723.2c-1.5 1.1-3.1 3.2-3.6 4.5-1.7 4.6 3.3 11.4 7.9 10.7.6-.1 2-.2 3-.3 2.1-.1 5.7-5.3 5.5-8-.2-4.1-.4-4.6-2.7-6.3-3.7-2.7-7.2-2.9-10.1-.6zM365.4 729c-1.2.5-2.9 1.9-3.8 3.2-5.1 7.2 3.3 16.2 11.1 12 8.9-4.9 2.1-18.9-7.3-15.2zM481.5 729.9c-5.2 2.2-7.1 7.5-4.4 12.1 2.7 4.4 6.6 5.6 11 3.4 6.3-3.2 5.8-12.3-.7-15-1.9-.8-3.5-1.4-3.6-1.3-.2 0-1.2.4-2.3.8zM393.3 735.5c-3.2 2.2-4.3 6.5-2.8 10.2 3.6 8.5 15.5 6.1 15.8-3.1.2-6.8-7.5-11-13-7.1zM423.4 735.2c-5.8 3.2-7.1 8.7-3.1 13.4 4.9 5.7 14.7 2 14.7-5.6 0-5.6-6.9-10.3-11.6-7.8zM449.4 736.3c-2.2 1.9-2.7 3.2-2.6 6.2.4 11.1 16.4 11.1 16.4 0 0-7.4-8.1-11.1-13.8-6.2z"/></svg>