<svg xmlns="http://www.w3.org/2000/svg" viewBox="0 0 460.6 483.1"><defs><style>.cls-1{fill:#fafbf6;}.cls-2{fill:#d7d7e1;}.cls-3{fill:#e51539;}.cls-4{fill:#ee716a;}.cls-5{fill:#ebdc3e;}.cls-6{fill:#87c28a;}.cls-7{fill:#50bfd2;}</style></defs><title>gateau</title><g id="Calque_1" data-name="Calque 1"><path class="cls-1" d="M25.78,485,.78,32l25-28c101-18,383.08,84.6,410.08,117.6,18.58,10.07,26,28.07,25.5,70.49l-57,246Z" transform="translate(-0.78 -1.9)"/><path class="cls-2" d="M2.89,54.33c45.55-30.66,298.25-8.27,436.24,69.2C350.44,51.67,68.44-10.33,25.78,4L.78,32Z" transform="translate(-0.78 -1.9)"/></g><g id="rouge"><path class="cls-3" d="M2.89,70.27c104-37,367.89,28.73,426.89,81.73,28.33,29.67-1.5,26.25-24,22-40.5-5.5-345.32-48.12-398.41-22.56Z" transform="translate(-0.78 -1.9)"/></g><g id="orange"><path class="cls-4" d="M9.84,196.26C49.11,176.78,319.78,175,401.11,207.67,461.38,233,416.44,266.33,373.78,254c-56.08-6.32-311.46-12.81-360.4,6.43Z" transform="translate(-0.78 -1.9)"/></g><g id="jaune"><path class="cls-5" d="M15.26,294.33c29.18-10,351.18-24.66,377.18-14s22.67,36-10,36.67S72,325.06,17.87,341.7Z" transform="translate(-0.78 -1.9)"/></g><g id="vert"><path class="cls-6" d="M19.23,366.4C52.44,357,324.44,321,392.44,346.33c2.67,22-10,22-28,38-37.33,3.34-312.53,11.51-342.26,35.43Z" transform="translate(-0.78 -1.9)"/></g><g id="bleu"><path class="cls-7" d="M23.27,439.58C-4.22,449.67,298.44,383,361.78,401c38.12,37.63,11.31,34.52-12.68,43.93L25.78,485Z" transform="translate(-0.78 -1.9)"/></g></svg>