<svg xmlns="http://www.w3.org/2000/svg" viewBox="0 0 42.12 83.01"><defs><style>.cls-1{fill:#f2dde7;}.cls-2{fill:#332929;}.cls-3,.cls-6{fill:none;stroke-linecap:round;}.cls-3,.cls-4{stroke:#d0b8bc;}.cls-3,.cls-4,.cls-6,.cls-7{stroke-miterlimit:10;}.cls-4{fill:#d0b8bc;}.cls-5{fill:#b65a38;}.cls-6,.cls-7{stroke:#c1a8a5;}.cls-7{fill:#c1a8a5;}</style></defs><title>enfant</title><g id="Calque_1" data-name="Calque 1"><path class="cls-1" d="M34.5,34.2c-2.63,3.66-15.43,10.6-24.74.67s-5-11.09-2.89-10.55c.75-4.21,19.42-13.67,26.88-8.12C42,20.23,37.08,30.74,34.5,34.2Z" transform="translate(-0.79 -0.35)"/><path class="cls-2" d="M9.76,34.87C.49,29.55-1.55,17.9,3.44,8.75L5.08,11C13.25-1.39,24.58-.22,30.83,1.2A4.89,4.89,0,0,0,28,4.73C38.87,7.07,49.75,21.45,34.5,34.2c2.75-5.13,4.5-11.63-.75-18-8.63,7.62-10.63,10-26.88,8.12C7.12,28.32,8,29.3,9.76,34.87Z" transform="translate(-0.79 -0.35)"/><path class="cls-3" d="M13.41,30.45a3,3,0,1,1,6,0" transform="translate(-0.79 -0.35)"/><path class="cls-3" d="M24.15,30.45a3,3,0,1,1,6,0" transform="translate(-0.79 -0.35)"/><ellipse class="cls-4" cx="20.73" cy="34.22" rx="1.1" ry="1.63"/></g><g id="Calque_3" data-name="Calque 3"><path class="cls-5" d="M.91,77.7V63.28C8,35.78,39.25,41,42.91,61.86V77.7C33.33,83.86,9.58,83.7.91,77.7Z" transform="translate(-0.79 -0.35)"/><path class="cls-1" d="M5.91,71C4.41,65.37,30.08,50,36.33,56.53,48.58,84.2,12,93,5.91,71Z" transform="translate(-0.79 -0.35)"/><path class="cls-6" d="M26,73.86c0-5.37,6.29-5.75,6.29,0" transform="translate(-0.79 -0.35)"/><path class="cls-6" d="M13,73.86c0-5.37,6.3-5.75,6.3,0" transform="translate(-0.79 -0.35)"/><circle class="cls-7" cx="21.49" cy="78.49" r="1.7"/><path class="cls-5" d="M36.33,56.53C37.37,49.26-3,57.32,5.91,71,26.62,73.57,34,62,36.33,56.53Z" transform="translate(-0.79 -0.35)"/></g></svg>